<?xml version="1.0" encoding="UTF-8"?><svg xmlns="http://www.w3.org/2000/svg" viewBox="0 0 124.24 130.24"><defs><style>.c{fill:#e38f8d;}.d{fill:#fff;}.e{fill:#f0afaf;}</style></defs><g id="a"><g><path class="c" d="M0,6H124.24V107.17c0,12.73-10.34,23.07-23.07,23.07H0V6H0Z"/><g><path class="e" d="M0,0H124.24V101.17c0,12.73-10.34,23.07-23.07,23.07H0V0H0Z"/><g><g><path class="d" d="M17.58,87.81c-2.32-1.28-4.18-3.14-5.58-5.58-1.4-2.44-2.21-5.34-2.44-8.69v-.04h10.19v.04c.2,1.98,.81,3.53,1.82,4.63,1.02,1.1,2.34,1.66,3.98,1.66,1.79,0,3.17-.58,4.15-1.75,.98-1.17,1.47-2.81,1.47-4.95v-4.54c0-2.13-.44-3.78-1.32-4.93-.88-1.15-2.11-1.73-3.7-1.73-1.46,0-2.71,.37-3.74,1.12-1.03,.74-1.74,1.79-2.14,3.12H10.75v-31.1h29.05v9.82H20.95v9.56c.77-.74,1.82-1.33,3.14-1.77,1.33-.43,2.65-.65,3.96-.65,2.8,0,5.2,.65,7.2,1.93,2,1.29,3.52,3.17,4.56,5.65,1.04,2.48,1.56,5.47,1.56,8.96v4.54c0,3.5-.63,6.49-1.88,8.96-1.25,2.48-3.07,4.37-5.45,5.67-2.38,1.3-5.26,1.95-8.63,1.95-2.9,0-5.51-.64-7.83-1.92Z"/><path class="d" d="M52.12,85.65c-2.75-2.72-4.13-6.48-4.13-11.29v-24.59c0-4.86,1.38-8.64,4.15-11.33,2.76-2.69,6.78-4.04,12.03-4.04s9.3,1.34,12.05,4.02c2.75,2.68,4.13,6.46,4.13,11.35v24.59c0,4.86-1.38,8.64-4.15,11.33-2.77,2.69-6.78,4.04-12.03,4.04s-9.3-1.36-12.05-4.07Zm16.59-7.85c.97-1.4,1.45-3.42,1.45-6.04v-19.38c0-2.63-.48-4.64-1.45-6.04-.97-1.4-2.48-2.1-4.54-2.1s-3.57,.7-4.54,2.1c-.97,1.4-1.45,3.42-1.45,6.04v19.38c0,2.63,.48,4.64,1.45,6.04,.97,1.4,2.48,2.1,4.54,2.1s3.57-.7,4.54-2.1Z"/></g><g><path class="d" d="M88.23,45.7c-.54-.53-.8-1.26-.8-2.21v-1.47c0-.95,.27-1.68,.8-2.21s1.29-.79,2.27-.79,1.74,.26,2.27,.79,.8,1.27,.8,2.23v1.44c0,.95-.27,1.69-.8,2.21s-1.29,.79-2.27,.79-1.73-.26-2.27-.79Zm9.63-6.51h2.92l-8.91,17.04h-2.92l8.91-17.04Zm-6.97,4.7c.09-.12,.13-.29,.13-.5v-1.29c0-.2-.04-.36-.13-.47-.09-.11-.22-.17-.39-.17s-.3,.06-.39,.17c-.09,.11-.13,.28-.13,.5v1.27c0,.23,.04,.4,.13,.51s.22,.17,.39,.17,.3-.06,.39-.18Zm5.81,11.72c-.54-.53-.8-1.26-.8-2.21v-1.46c0-.95,.27-1.68,.8-2.21s1.29-.79,2.27-.79,1.74,.26,2.27,.79,.8,1.27,.8,2.23v1.44c0,.95-.27,1.69-.8,2.21s-1.29,.79-2.27,.79-1.73-.26-2.27-.79Zm2.66-1.81c.09-.12,.13-.29,.13-.5v-1.29c0-.2-.04-.36-.13-.47s-.22-.17-.39-.17-.3,.06-.39,.17-.13,.28-.13,.5v1.27c0,.23,.04,.4,.13,.51s.22,.17,.39,.17,.3-.06,.39-.18Z"/><path class="d" d="M89.86,84.43c-.71-.52-1.25-1.25-1.64-2.2s-.58-2.05-.58-3.3v-4.83c0-1.25,.19-2.35,.58-3.3,.39-.95,.93-1.68,1.64-2.2,.71-.52,1.52-.78,2.45-.78s1.74,.26,2.45,.78c.71,.52,1.25,1.25,1.64,2.2,.39,.95,.58,2.05,.58,3.3v4.83c0,1.25-.19,2.35-.58,3.3s-.93,1.68-1.64,2.2c-.71,.52-1.52,.78-2.45,.78s-1.74-.26-2.45-.78Zm3.59-2.8c.33-.25,.58-.6,.76-1.05,.18-.45,.27-.98,.27-1.57v-4.99c0-.59-.09-1.12-.27-1.57-.18-.45-.43-.8-.76-1.05s-.71-.37-1.14-.37-.81,.12-1.14,.37-.58,.6-.76,1.05c-.18,.45-.27,.98-.27,1.57v4.99c0,.59,.09,1.12,.27,1.57,.18,.45,.43,.8,.76,1.05s.71,.37,1.14,.37,.81-.12,1.14-.37Z"/><path class="d" d="M99.34,67.99h2.41v17.04h-2.41v-17.04Zm.88,0h7.51v3.09h-7.51v-3.09Zm0,7.18h6.55v3.09h-6.55v-3.09Z"/><path class="d" d="M109.58,67.99h2.41v17.04h-2.41v-17.04Zm.88,0h7.51v3.09h-7.51v-3.09Zm0,7.18h6.55v3.09h-6.55v-3.09Z"/></g></g></g></g></g><g id="b"/></svg>