<?xml version="1.0" encoding="UTF-8"?><svg xmlns="http://www.w3.org/2000/svg" viewBox="0 0 124.24 130.24"><defs><style>.c{fill:#e38f8d;}.d{fill:#fff;}.e{fill:#de8080;}</style></defs><g id="a"><g><path class="e" d="M0,6H124.24V107.17c0,12.73-10.34,23.07-23.07,23.07H0V6H0Z"/><path class="c" d="M0,0H124.24V101.17c0,12.73-10.34,23.07-23.07,23.07H0V0H0Z"/><g><g><path class="d" d="M17.13,87.87c-2.59-1.24-4.59-2.99-6.01-5.26-1.41-2.27-2.12-4.9-2.12-7.9v-.89c0-2.7,.74-5.24,2.23-7.63,1.49-2.38,3.47-4.18,5.95-5.39-2.13-1.04-3.84-2.53-5.13-4.46-1.29-1.93-1.93-3.99-1.93-6.17v-1.41c0-2.83,.66-5.31,1.99-7.46,1.33-2.14,3.2-3.81,5.62-4.98,2.42-1.18,5.23-1.77,8.42-1.77s6.01,.59,8.42,1.77c2.42,1.18,4.29,2.84,5.62,4.98,1.33,2.15,1.99,4.63,1.99,7.46v1.41c0,2.23-.66,4.31-1.97,6.23-1.31,1.92-3.05,3.39-5.21,4.41,2.5,1.24,4.51,3.04,6.03,5.41,1.51,2.37,2.27,4.9,2.27,7.61v.89c0,3-.71,5.64-2.12,7.9-1.41,2.27-3.42,4.02-6.01,5.26-2.59,1.24-5.6,1.86-9.02,1.86s-6.43-.62-9.02-1.86Zm12.65-8.8c1.05-.56,1.87-1.34,2.46-2.36,.58-1.02,.87-2.18,.87-3.5v-.52c0-1.21-.29-2.28-.87-3.2-.58-.92-1.4-1.63-2.44-2.14-1.04-.51-2.26-.76-3.65-.76s-2.6,.25-3.65,.76c-1.04,.51-1.85,1.23-2.44,2.16s-.87,2-.87,3.22v.56c0,1.31,.29,2.47,.87,3.48,.58,1,1.4,1.78,2.46,2.32,1.05,.55,2.26,.82,3.63,.82s2.57-.28,3.63-.84Zm-.56-23.14c.88-.51,1.56-1.23,2.05-2.16,.48-.93,.73-2,.73-3.22v-.52c0-1.14-.24-2.14-.73-2.99-.48-.86-1.17-1.52-2.05-1.99-.88-.47-1.9-.71-3.07-.71s-2.19,.24-3.07,.71c-.88,.47-1.56,1.14-2.05,2.01-.48,.87-.73,1.87-.73,3.01v.56c0,1.19,.24,2.24,.73,3.16,.48,.92,1.17,1.63,2.05,2.14,.88,.51,1.9,.76,3.07,.76s2.19-.25,3.07-.76Z"/><path class="d" d="M53.5,85.65c-2.75-2.72-4.13-6.48-4.13-11.29v-24.59c0-4.86,1.38-8.64,4.15-11.33,2.76-2.69,6.78-4.04,12.03-4.04s9.3,1.34,12.05,4.02c2.75,2.68,4.13,6.46,4.13,11.35v24.59c0,4.86-1.38,8.64-4.15,11.33-2.77,2.69-6.78,4.04-12.03,4.04s-9.3-1.36-12.05-4.07Zm16.59-7.85c.97-1.4,1.45-3.42,1.45-6.04v-19.38c0-2.63-.48-4.64-1.45-6.04-.97-1.4-2.48-2.1-4.54-2.1s-3.57,.7-4.54,2.1c-.97,1.4-1.45,3.42-1.45,6.04v19.38c0,2.63,.48,4.64,1.45,6.04,.97,1.4,2.48,2.1,4.54,2.1s3.57-.7,4.54-2.1Z"/></g><g><path class="d" d="M88.23,45.7c-.54-.53-.8-1.26-.8-2.21v-1.47c0-.95,.27-1.68,.8-2.21s1.29-.79,2.27-.79,1.74,.26,2.27,.79,.8,1.27,.8,2.23v1.44c0,.95-.27,1.69-.8,2.21s-1.29,.79-2.27,.79-1.73-.26-2.27-.79Zm9.63-6.51h2.92l-8.91,17.04h-2.92l8.91-17.04Zm-6.97,4.7c.09-.12,.13-.29,.13-.5v-1.29c0-.2-.04-.36-.13-.47-.09-.11-.22-.17-.39-.17s-.3,.06-.39,.17c-.09,.11-.13,.28-.13,.5v1.27c0,.23,.04,.4,.13,.51s.22,.17,.39,.17,.3-.06,.39-.18Zm5.81,11.72c-.54-.53-.8-1.26-.8-2.21v-1.46c0-.95,.27-1.68,.8-2.21s1.29-.79,2.27-.79,1.74,.26,2.27,.79,.8,1.27,.8,2.23v1.44c0,.95-.27,1.69-.8,2.21s-1.29,.79-2.27,.79-1.73-.26-2.27-.79Zm2.66-1.81c.09-.12,.13-.29,.13-.5v-1.29c0-.2-.04-.36-.13-.47s-.22-.17-.39-.17-.3,.06-.39,.17-.13,.28-.13,.5v1.27c0,.23,.04,.4,.13,.51s.22,.17,.39,.17,.3-.06,.39-.18Z"/><path class="d" d="M89.86,84.43c-.71-.52-1.25-1.25-1.64-2.2s-.58-2.05-.58-3.3v-4.83c0-1.25,.19-2.35,.58-3.3,.39-.95,.93-1.68,1.64-2.2,.71-.52,1.52-.78,2.45-.78s1.74,.26,2.45,.78c.71,.52,1.25,1.25,1.64,2.2,.39,.95,.58,2.05,.58,3.3v4.83c0,1.25-.19,2.35-.58,3.3s-.93,1.68-1.64,2.2c-.71,.52-1.52,.78-2.45,.78s-1.74-.26-2.45-.78Zm3.59-2.8c.33-.25,.58-.6,.76-1.05,.18-.45,.27-.98,.27-1.57v-4.99c0-.59-.09-1.12-.27-1.57-.18-.45-.43-.8-.76-1.05s-.71-.37-1.14-.37-.81,.12-1.14,.37-.58,.6-.76,1.05c-.18,.45-.27,.98-.27,1.57v4.99c0,.59,.09,1.12,.27,1.57,.18,.45,.43,.8,.76,1.05s.71,.37,1.14,.37,.81-.12,1.14-.37Z"/><path class="d" d="M99.34,67.99h2.41v17.04h-2.41v-17.04Zm.88,0h7.51v3.09h-7.51v-3.09Zm0,7.18h6.55v3.09h-6.55v-3.09Z"/><path class="d" d="M109.58,67.99h2.41v17.04h-2.41v-17.04Zm.88,0h7.51v3.09h-7.51v-3.09Zm0,7.18h6.55v3.09h-6.55v-3.09Z"/></g></g></g></g><g id="b"/></svg>