<?xml version="1.0" encoding="UTF-8"?><svg xmlns="http://www.w3.org/2000/svg" viewBox="0 0 124.24 130.24"><defs><style>.c{font-size:24px;}.c,.d,.e{fill:#fff;}.c,.e{font-family:ZenKakuGothicNew-Bold, Zen Kaku Gothic New;}.f{fill:#e38f8d;}.e{font-size:20px;}.g{fill:#de8080;}</style></defs><g id="a"><g><path class="g" d="M0,6H124.24V107.17c0,12.73-10.34,23.07-23.07,23.07H0V6H0Z"/><path class="f" d="M0,0H124.24V101.17c0,12.73-10.34,23.07-23.07,23.07H0V0H0Z"/><g><path class="d" d="M23.92,72.94c-2.55-1.19-4.59-2.93-6.1-5.21-1.51-2.28-2.34-5-2.49-8.15h10.53c.15,1.12,.48,2.06,.99,2.85s1.16,1.38,1.95,1.79c.79,.41,1.71,.61,2.75,.61,1.93,0,3.43-.54,4.48-1.62,1.05-1.08,1.58-2.6,1.58-4.56v-1.26c0-2.06-.43-3.65-1.28-4.76-.86-1.12-2.08-1.67-3.66-1.67h-4.58v-9.82h4.58c1.29,0,2.29-.49,3-1.47,.71-.98,1.06-2.35,1.06-4.11v-.93c0-1.66-.39-2.94-1.17-3.85-.78-.91-1.88-1.36-3.29-1.36-.92,0-1.75,.24-2.51,.71-.76,.47-1.39,1.15-1.92,2.05-.52,.89-.89,1.97-1.12,3.24h-10.49c.3-3.3,1.18-6.14,2.66-8.54,1.47-2.39,3.4-4.22,5.78-5.47,2.38-1.25,5.03-1.88,7.96-1.88,4.79,0,8.49,1.22,11.1,3.66,2.62,2.44,3.92,5.91,3.92,10.4v1.64c0,2.5-.63,4.69-1.9,6.55-1.26,1.86-3.06,3.25-5.39,4.17,2.6,.6,4.62,1.96,6.04,4.09,1.43,2.13,2.14,4.85,2.14,8.15v1.64c0,3.15-.62,5.84-1.86,8.07-1.24,2.23-3.05,3.93-5.43,5.1-2.38,1.17-5.24,1.75-8.59,1.75s-6.19-.59-8.74-1.79Z"/><path class="d" d="M61.98,70.65c-2.75-2.72-4.13-6.48-4.13-11.29v-24.59c0-4.86,1.38-8.64,4.15-11.33,2.76-2.69,6.78-4.04,12.03-4.04s9.3,1.34,12.05,4.02c2.75,2.68,4.13,6.46,4.13,11.34v24.59c0,4.86-1.38,8.64-4.15,11.33-2.77,2.69-6.78,4.04-12.03,4.04s-9.3-1.36-12.05-4.07Zm16.59-7.85c.97-1.4,1.45-3.42,1.45-6.04v-19.38c0-2.63-.48-4.64-1.45-6.04-.97-1.4-2.48-2.1-4.54-2.1s-3.57,.7-4.54,2.1c-.97,1.4-1.45,3.42-1.45,6.04v19.38c0,2.63,.48,4.64,1.45,6.04s2.48,2.1,4.54,2.1,3.57-.7,4.54-2.1Z"/></g><text class="e" transform="translate(91.49 74.23)"><tspan x="0" y="0">倍</tspan></text><text class="c" transform="translate(13.49 105.23)"><tspan x="0" y="0">ポイント</tspan></text></g></g><g id="b"/></svg>