<?xml version="1.0" encoding="UTF-8"?><svg xmlns="http://www.w3.org/2000/svg" viewBox="0 0 124.24 130.24"><defs><style>.c{font-size:24px;}.c,.d,.e{fill:#fff;}.c,.e{font-family:ZenKakuGothicNew-Bold, Zen Kaku Gothic New;}.f{fill:#e38f8d;}.g{fill:#f0afaf;}.e{font-size:20px;}</style></defs><g id="a"><g><path class="f" d="M0,6H124.24V107.17c0,12.73-10.34,23.07-23.07,23.07H0V6H0Z"/><g><path class="g" d="M0,0H124.24V101.17c0,12.73-10.34,23.07-23.07,23.07H0V0H0Z"/><path class="d" d="M33.75,64.98l18.56-24.4c.84-1.09,1.49-2.21,1.95-3.37,.46-1.15,.69-2.23,.69-3.22v-.07c0-1.46-.47-2.59-1.41-3.38-.94-.79-2.28-1.19-4.02-1.19s-3.05,.55-4.09,1.66c-1.04,1.1-1.67,2.67-1.9,4.71v.04h-10.45v-.04c.22-3.37,1.04-6.27,2.44-8.7,1.4-2.43,3.29-4.28,5.67-5.56,2.38-1.28,5.13-1.92,8.26-1.92,3.37,0,6.25,.55,8.65,1.66,2.39,1.1,4.22,2.71,5.47,4.82,1.25,2.11,1.88,4.65,1.88,7.63v.04c0,2.45-.43,4.89-1.28,7.31-.86,2.42-2.05,4.61-3.59,6.56l-13.32,16.81h18.49v9.82h-31.99v-9.19Z"/><text class="e" transform="translate(72.49 74.23)"><tspan x="0" y="0">倍</tspan></text><text class="c" transform="translate(13.49 105.23)"><tspan x="0" y="0">ポイント</tspan></text></g></g></g><g id="b"/></svg>