<?xml version="1.0" encoding="UTF-8"?><svg xmlns="http://www.w3.org/2000/svg" viewBox="0 0 124.24 130.24"><defs><style>.c{font-size:24px;}.c,.d,.e{fill:#fff;}.c,.e{font-family:ZenKakuGothicNew-Bold, Zen Kaku Gothic New;}.f{fill:#e38f8d;}.e{font-size:20px;}.g{fill:#de8080;}</style></defs><g id="a"><g><path class="g" d="M0,6H124.24V107.17c0,12.73-10.34,23.07-23.07,23.07H0V6H0Z"/><path class="f" d="M0,0H124.24V101.17c0,12.73-10.34,23.07-23.07,23.07H0V0H0Z"/><g><path class="d" d="M16.75,64.98l18.56-24.4c.84-1.09,1.49-2.21,1.95-3.37,.46-1.15,.69-2.23,.69-3.22v-.07c0-1.46-.47-2.59-1.41-3.38-.94-.79-2.28-1.19-4.02-1.19s-3.05,.55-4.09,1.66c-1.04,1.1-1.67,2.67-1.9,4.71v.04h-10.45v-.04c.22-3.37,1.04-6.27,2.44-8.7,1.4-2.43,3.29-4.28,5.67-5.56,2.38-1.28,5.13-1.92,8.26-1.92,3.37,0,6.25,.55,8.65,1.66,2.39,1.1,4.22,2.71,5.47,4.82,1.25,2.11,1.88,4.65,1.88,7.63v.04c0,2.45-.43,4.89-1.28,7.31-.86,2.42-2.05,4.61-3.59,6.56l-13.32,16.81h18.49v9.82H16.75v-9.19Z"/><path class="d" d="M61.05,70.65c-2.75-2.72-4.13-6.48-4.13-11.29v-24.59c0-4.86,1.38-8.64,4.15-11.33,2.76-2.69,6.78-4.04,12.03-4.04s9.3,1.34,12.05,4.02c2.75,2.68,4.13,6.46,4.13,11.34v24.59c0,4.86-1.38,8.64-4.15,11.33-2.77,2.69-6.78,4.04-12.03,4.04s-9.3-1.36-12.05-4.07Zm16.59-7.85c.97-1.4,1.45-3.42,1.45-6.04v-19.38c0-2.63-.48-4.64-1.45-6.04-.97-1.4-2.48-2.1-4.54-2.1s-3.57,.7-4.54,2.1c-.97,1.4-1.45,3.42-1.45,6.04v19.38c0,2.63,.48,4.64,1.45,6.04s2.48,2.1,4.54,2.1,3.57-.7,4.54-2.1Z"/></g><text class="e" transform="translate(91.49 74.23)"><tspan x="0" y="0">倍</tspan></text><text class="c" transform="translate(13.49 105.23)"><tspan x="0" y="0">ポイント</tspan></text></g></g><g id="b"/></svg>