<?xml version="1.0" encoding="UTF-8"?><svg xmlns="http://www.w3.org/2000/svg" viewBox="0 0 124.24 130.24"><defs><style>.c{font-size:24px;}.c,.d,.e{fill:#fff;}.c,.e{font-family:ZenKakuGothicNew-Bold, Zen Kaku Gothic New;}.f{fill:#e38f8d;}.g{fill:#f0afaf;}.e{font-size:20px;}</style></defs><g id="a"><g><path class="f" d="M0,6H124.24V107.17c0,12.73-10.34,23.07-23.07,23.07H0V6H0Z"/><g><path class="g" d="M0,0H124.24V101.17c0,12.73-10.34,23.07-23.07,23.07H0V0H0Z"/><path class="d" d="M42.58,72.81c-2.32-1.28-4.18-3.14-5.58-5.58-1.4-2.44-2.21-5.34-2.44-8.69v-.04h10.19v.04c.2,1.98,.81,3.53,1.82,4.63,1.02,1.1,2.34,1.66,3.98,1.66,1.79,0,3.17-.58,4.15-1.75,.98-1.17,1.47-2.81,1.47-4.95v-4.54c0-2.13-.44-3.78-1.32-4.93-.88-1.15-2.11-1.73-3.7-1.73-1.46,0-2.71,.37-3.74,1.12-1.03,.74-1.74,1.79-2.14,3.12h-9.52V20.08h29.05v9.82h-18.86v9.56c.77-.74,1.82-1.33,3.14-1.77,1.33-.43,2.65-.65,3.96-.65,2.8,0,5.2,.65,7.2,1.93,2,1.29,3.52,3.17,4.56,5.65,1.04,2.48,1.56,5.47,1.56,8.96v4.54c0,3.5-.63,6.49-1.88,8.96-1.25,2.48-3.07,4.37-5.45,5.67-2.38,1.3-5.26,1.95-8.63,1.95-2.9,0-5.51-.64-7.83-1.92Z"/><text class="e" transform="translate(72.49 74.23)"><tspan x="0" y="0">倍</tspan></text><text class="c" transform="translate(13.49 105.23)"><tspan x="0" y="0">ポイント</tspan></text></g></g></g><g id="b"/></svg>