<?xml version="1.0" encoding="UTF-8"?><svg xmlns="http://www.w3.org/2000/svg" viewBox="0 0 124.24 130.24"><defs><style>.c{font-size:24px;}.c,.d,.e{fill:#fff;}.c,.e{font-family:ZenKakuGothicNew-Bold, Zen Kaku Gothic New;}.f{fill:#e38f8d;}.g{fill:#f0afaf;}.e{font-size:20px;}</style></defs><g id="a"><g><path class="f" d="M0,6H124.24V107.17c0,12.73-10.34,23.07-23.07,23.07H0V6H0Z"/><g><path class="g" d="M0,0H124.24V101.17c0,12.73-10.34,23.07-23.07,23.07H0V0H0Z"/><g><path class="d" d="M38.11,74.17h-10.19V32.06l-6.58,2.49v-10.82l8.07-3.65h8.7v54.09Z"/><path class="d" d="M53.03,70.65c-2.75-2.72-4.13-6.48-4.13-11.29v-24.59c0-4.86,1.38-8.64,4.15-11.33,2.76-2.69,6.78-4.04,12.03-4.04s9.3,1.34,12.05,4.02c2.75,2.68,4.13,6.46,4.13,11.34v24.59c0,4.86-1.38,8.64-4.15,11.33-2.77,2.69-6.78,4.04-12.03,4.04s-9.3-1.36-12.05-4.07Zm16.59-7.85c.97-1.4,1.45-3.42,1.45-6.04v-19.38c0-2.63-.48-4.64-1.45-6.04-.97-1.4-2.48-2.1-4.54-2.1s-3.57,.7-4.54,2.1c-.97,1.4-1.45,3.42-1.45,6.04v19.38c0,2.63,.48,4.64,1.45,6.04s2.48,2.1,4.54,2.1,3.57-.7,4.54-2.1Z"/></g><text class="e" transform="translate(86.49 74.23)"><tspan x="0" y="0">倍</tspan></text><text class="c" transform="translate(13.49 105.23)"><tspan x="0" y="0">ポイント</tspan></text></g></g></g><g id="b"/></svg>