<?xml version="1.0" encoding="UTF-8"?><svg xmlns="http://www.w3.org/2000/svg" viewBox="0 0 53.92 49.11"><defs><style>.c{fill:#3e3a39;}</style></defs><g id="a"><g><path class="c" d="M22.84,36.27c-.96-.38-1.75-.95-2.36-1.71-.61-.76-1.06-1.7-1.34-2.84l2.02-.84c.35,1.24,.95,2.17,1.79,2.8,.85,.63,1.94,.94,3.28,.94,1.53,0,2.69-.36,3.5-1.08,.8-.72,1.2-1.74,1.2-3.07v-.74c0-.85-.2-1.56-.59-2.11-.39-.56-.9-1-1.52-1.32-.62-.33-1.43-.66-2.42-1.01-.02-.01-.05-.02-.09-.03-.04-.01-.07-.02-.09-.03-.08-.03-.15-.06-.23-.09s-.15-.05-.23-.08c-1.33-.44-2.38-.86-3.17-1.25-.79-.4-1.46-.99-2.01-1.79-.55-.79-.83-1.84-.83-3.14v-.61c0-1.38,.26-2.55,.79-3.51,.53-.96,1.31-1.68,2.35-2.17,1.04-.49,2.31-.73,3.81-.73,1.13,0,2.12,.18,2.96,.55,.84,.36,1.54,.91,2.1,1.63,.56,.72,.98,1.63,1.26,2.72l-2.11,.84c-.34-1.18-.85-2.06-1.55-2.64-.7-.58-1.58-.88-2.66-.88-1.47,0-2.6,.35-3.39,1.05-.79,.7-1.18,1.72-1.18,3.04v.61c0,.85,.22,1.55,.66,2.09,.44,.54,.98,.96,1.63,1.25,.65,.3,1.54,.64,2.66,1.02,.04,.01,.09,.03,.14,.05,.05,.02,.1,.04,.14,.05,.04,.01,.1,.03,.15,.04,.06,.02,.11,.04,.15,.06,1.18,.37,2.16,.79,2.94,1.25,.78,.46,1.43,1.1,1.95,1.91,.52,.81,.77,1.86,.77,3.14v.79c0,1.39-.27,2.57-.81,3.53-.54,.96-1.34,1.68-2.41,2.16-1.07,.48-2.36,.72-3.89,.72-1.3,0-2.43-.19-3.39-.57Zm2.5-27.15h2.41v3.84h-2.41v-3.84Zm0,26.39h2.41v4.06h-2.41v-4.06Z"/><path class="c" d="M26.72,49.11c-10.64,0-20.31-6.94-23.48-17.43l1.78-.54c3.32,10.98,14.35,17.76,25.67,15.76,9.36-1.65,16.76-9.05,18.4-18.41l1.83,.32c-1.78,10.13-9.78,18.13-19.91,19.92-1.44,.25-2.88,.38-4.29,.38Z"/><path class="c" d="M4.49,20.1l-1.82-.37C4.66,9.75,12.44,2.15,22.47,.37c12.1-2.14,24,5.07,27.68,16.77l-1.78,.56C44.97,6.89,33.97,.23,22.79,2.21,13.52,3.85,6.33,10.87,4.49,20.1Z"/><path class="c" d="M49.41,19.63c-.15,0-.29-.05-.42-.12l-6.36-3.66,.93-1.61,5.56,3.19,3.19-5.56,1.61,.93-3.66,6.36c-.12,.21-.33,.37-.56,.43-.1,.03-.19,.04-.29,.03Z"/><path class="c" d="M1.73,37.83l-1.73-.69,2.74-6.81c.19-.48,.73-.71,1.21-.52l6.81,2.74-.69,1.73-5.95-2.39-2.39,5.95Z"/></g></g><g id="b"/></svg>