<?xml version="1.0" encoding="UTF-8"?><svg xmlns="http://www.w3.org/2000/svg" viewBox="0 0 57.45 57.55"><defs><style>.c{fill:#3e3a39;}</style></defs><g id="a"><g><path class="c" d="M0,52.01c.51-1.77,1.01-3.52,1.52-5.27,1.66-5.67,3.35-11.33,4.98-17.01,.17-.61,.16-1.35-.01-1.96C4.42,20.6,2.31,13.45,.21,6.29c-.07-.24-.12-.48-.21-.86,2.05-.69,4.06-1.42,6.09-2.05C11.09,1.83,16.19,.85,21.4,.35c4.6-.44,9.2-.47,13.79-.1,7.46,.6,14.69,2.26,21.68,4.96,.59,.23,.68,.48,.5,1.07-2.14,7.23-4.26,14.47-6.35,21.72-.14,.48-.14,1.06,0,1.54,2.07,7.16,4.16,14.32,6.3,21.47,.26,.87,.03,1.16-.75,1.45-6.26,2.33-12.69,3.91-19.35,4.63-5.33,.57-10.65,.62-15.97,.11-7.19-.7-14.16-2.34-20.89-5.01-.1-.04-.2-.09-.37-.18ZM56.74,6.01c-.18-.13-.24-.19-.32-.22-.18-.08-.36-.15-.55-.22C44.44,1.33,32.67-.2,20.53,1.11,14.1,1.81,7.88,3.29,1.82,5.51c-.8,.29-1.01,.58-.75,1.44,2.1,7.01,4.16,14.03,6.19,21.06,.14,.48,.12,1.06-.02,1.54-2.04,7.03-4.1,14.05-6.19,21.06-.24,.81-.05,1.11,.71,1.39,11.53,4.27,23.4,5.72,35.61,4.4,5.96-.64,11.77-2.02,17.41-4.05,.65-.23,1.29-.5,1.94-.76-.1-.38-.16-.65-.24-.92-2.04-6.97-4.1-13.93-6.12-20.91-.18-.61-.19-1.35-.02-1.96,1.27-4.5,2.61-8.97,3.93-13.45,.82-2.78,1.63-5.55,2.44-8.35Z"/><path class="c" d="M53.71,7.83c-.88,3.02-1.76,6.02-2.63,9.02-1.09,3.73-2.2,7.46-3.26,11.19-.13,.46-.13,1.03,0,1.49,1.88,6.5,3.78,12.99,5.68,19.49,.07,.23,.13,.47,.23,.83-16.64,5.84-33.22,5.84-49.91,0,.52-1.79,1.02-3.48,1.51-5.17,1.48-5.03,2.96-10.06,4.41-15.11,.15-.51,.14-1.14,0-1.66-1.86-6.42-3.74-12.84-5.65-19.24-.21-.71-.12-1.02,.64-1.28,5.2-1.77,10.51-3.01,15.97-3.62,4.4-.49,8.81-.6,13.23-.29,6.69,.48,13.19,1.85,19.51,4.12,.07,.03,.13,.09,.29,.21Zm-29.21,13.84c-.06,.16-.07,.23-.11,.26-2.44,1.99-3.09,4.7-3.09,7.67,0,3.82,0,7.64,0,11.45,0,1.55,.32,1.96,1.89,2.2,1.13,.18,2.27,.32,3.4,.41,2.76,.22,5.51,.05,8.22-.5,1.14-.23,1.49-.71,1.5-1.81,0-4.15,.08-8.29-.03-12.43-.07-2.64-.76-5.13-3-6.88-.08-.06-.11-.19-.27-.49,.67,.46,1.13,.91,1.63,.17,.58-.85,.52-1.17-.21-1.87-.19-.18-.23-.64-.16-.93,.19-.74,.49-1.44,.72-2.17,.41-1.29,.18-1.8-1.14-2.05-1.44-.27-2.91-.58-4.36-.55-2.03,.05-4.06,.32-6.07,.65-1.02,.16-1.23,.69-.93,1.7,.24,.83,.54,1.65,.85,2.47,.17,.46,.12,.78-.36,1-.53,.24-.61,.6-.37,1.13,.49,1.1,.73,1.2,1.88,.57Zm-1.8-11.12c-.95,.05-.89,.64-.73,1.22,.19,.67,.71,.25,1.09,.26,.3,0,.61,.03,.9-.04,.36-.09,.91-.19,.99-.42,.18-.5,.15-1.1-.71-1.18l1.03-2.4,1.34,2.44c-.92-.09-.84,.46-.81,.96,.05,.66,.56,.45,.93,.46,.52,.02,1.04,0,1.56,0,.44,.01,.61-.17,.64-.63,.04-.58-.2-.85-.83-.84,.48-1.13,.9-2.19,1.37-3.22,.09-.2,.38-.41,.59-.43,.65-.07,.6-.51,.59-.95-.01-.49-.33-.56-.73-.55-.52,.01-1.04,0-1.56,0-.79,.01-1.06,.33-.82,1.06,.08,.25,.42,.41,.7,.67l-.93,2.18c-.17-.27-.28-.42-.37-.58-.31-.54-.61-1.09-.96-1.71,.84-.13,.82-.67,.65-1.22-.2-.65-.72-.28-1.1-.29-.38-.02-.76,.03-1.14,.05-.74,.03-1.05,.44-.75,1.1,.11,.23,.47,.33,.74,.51l-1.03,2.37-1.31-2.33c1.23-.2,.6-.89,.58-1.53-.84,.07-1.62,.16-2.4,.2-.46,.03-.62,.25-.58,.69,.04,.42,.02,.85,.67,.76,.18-.02,.48,.13,.58,.29,.6,1,1.16,2.02,1.78,3.12Zm24.4,2.41c-.82-.1-.76,.52-.83,.91-.03,.16,.33,.47,.58,.58,.47,.21,.99,.29,1.47,.48,.62,.24,.85,0,1.04-.58,.25-.74-.44-.66-.75-.96,.32-1.14,.63-2.28,.97-3.51,.73,.34,1.03,.04,1.17-.62,.17-.79-.48-.64-.85-.79-.4-.17-.82-.32-1.25-.36-.28-.03-.73,.05-.84,.24-.2,.34-.52,.86,.25,1.09,.13,.04,.27,.4,.24,.58-.11,.57-.31,1.13-.52,1.83l-1.56-2.53c.27-.62,.53-1.03,.59-1.46,.02-.13-.48-.38-.78-.5-.4-.15-.84-.23-1.26-.32-.77-.17-1.1,.05-1.04,.82,.02,.27,.4,.52,.67,.85l-.92,3.3c-.95-.11-1.02-.05-1.18,.63-.18,.78,.4,.74,.87,.85,.42,.1,.84,.22,1.27,.32,.66,.15,1.21-.35,.99-.96-.1-.27-.48-.43-.78-.67l.63-2.13,1.81,2.92Zm-2.57,32.54l.19-.13c-.05-.41,0-.87-.19-1.21-.09-.16-.6-.17-.91-.13-.54,.07-1.08,.19-1.58,.39-.19,.07-.4,.4-.4,.62-.02,.69,.3,1.04,1.09,.66l.94,3.58c-.83,.08-.86,.54-.68,1.11,.2,.65,.67,.39,1.07,.31,.43-.08,.85-.18,1.28-.28,.76-.18,.97-.56,.55-1.2-.16-.24-.65-.27-1.12-.44l-.53-2.08,2.69,1.44c.06,.64,.01,1.09,.17,1.46,.06,.13,.6,.12,.91,.07,.45-.07,.89-.28,1.34-.35,.75-.12,.83-.58,.51-1.09-.16-.26-.58-.35-.89-.51-.42-.86-.72-1.87-.96-2.89-.04-.16,.13-.51,.27-.55,.72-.2,.4-.65,.3-1.04-.12-.49-.47-.44-.84-.33-.5,.15-1,.28-1.49,.43-.74,.22-.93,.63-.48,1.24,.16,.22,.62,.22,1.04,.36l.51,2.01c-.22-.09-.32-.12-.41-.17-.79-.42-1.58-.85-2.37-1.27ZM34.95,6.94c.3,.44,.43,.76,.67,.93,.14,.1,.64-.01,.65-.09,.1-.52,.22-1.09,.11-1.58-.07-.28-.55-.58-.89-.65-.66-.14-1.35-.16-2.03-.19-2.37-.08-2.43-.02-2.48,2.37-.02,1.02,.22,1.26,1.28,1.33,.92,.06,1.83,.15,2.73,.22,.18,1.3,.14,1.36-1.03,1.3-.62-.04-1.23-.13-1.86-.2-.03-.15-.08-.25-.07-.35,.04-.48-.07-.76-.65-.78-.63-.02-.54,.4-.57,.76-.02,.33,0,.65-.02,.98-.02,.54,.27,.8,.78,.84,1.14,.09,2.28,.19,3.42,.25,.58,.03,1.04-.2,1.12-.82,.09-.67,.13-1.35,.17-2.03,.04-.66-.3-1.02-.95-1.08-.73-.07-1.46-.13-2.2-.17-1-.05-1.12-.2-.76-1.24l2.56,.21ZM12.44,45.13c.11,.45,.1,.81,.27,1,.13,.15,.7,.17,.72,.12,.19-.52,.41-1.07,.42-1.61,0-.27-.38-.65-.68-.78-.62-.26-1.3-.38-1.96-.57-2.08-.61-2.22-.93-2.89,1.68-.28,1.11-.14,1.38,.98,1.7,.88,.25,1.76,.5,2.72,.77l-.44,1.28c-.81-.23-1.5-.46-2.22-.62-.46-.11-.65-.26-.52-.78,.04-.18-.24-.59-.43-.63-.2-.04-.53,.2-.67,.41-.16,.23-.15,.57-.26,.85-.27,.74,.03,1.14,.73,1.34,.89,.25,1.78,.5,2.67,.74,1.25,.34,1.54,.18,1.9-1.04,.09-.31,.18-.63,.27-.94,.34-1.22,.19-1.48-1.01-1.82-.87-.25-1.74-.51-2.65-.78l.36-1.08,2.69,.76ZM19.07,11.04c-.9,.08-.91,.49-.8,1.05,.15,.74,.63,.42,1.02,.39,.43-.03,.87-.1,1.29-.18,.34-.07,.86,0,.79-.59-.06-.45-.03-1.04-.81-.93-.16,.02-.4-.16-.52-.31-.77-.92-1.51-1.85-2.32-2.86,.7-.16,.84-.53,.65-1.14-.23-.77-.73-.34-1.13-.31-.41,.03-.81,.13-1.21,.18-.67,.07-.97,.39-.63,1.03,.14,.27,.45,.45,.73,.72-.37,1.03-.76,2.16-1.2,3.27-.09,.23-.35,.46-.59,.56-.54,.23-.33,.57-.26,.94,.07,.41,.23,.56,.66,.46,.63-.16,1.3-.21,1.91-.42,.21-.07,.49-.5,.44-.67-.12-.36-.43-.65-.71-1.02,.26-.31,1.88-.61,2.7-.19Zm4.72,39.26l.07,.38c-.9-.12-.89,.46-.87,.99,.02,.63,.56,.48,.92,.52,.49,.06,.98,.04,1.47,.06,.38,.02,.73,0,.74-.51,0-.43,.14-.91-.57-.92-.14,0-.36-.16-.42-.29-.52-1.13-1.01-2.27-1.56-3.52,.81,.12,.93-.27,.95-.85,.02-.68-.49-.55-.84-.61-.45-.08-.92-.09-1.38-.11-.34,0-.79-.25-.86,.4-.05,.5-.29,1.03,.64,1.03-.67,.96-1.26,1.81-1.85,2.65-.26,.38-.47,.78-1.07,.74-.14,0-.41,.44-.45,.7-.03,.21,.17,.64,.33,.67,.84,.16,1.7,.23,2.6,.33,.08-.7,.63-1.41-.64-1.57l.19-.29,2.6,.2ZM38.61,5.88c-.7-.02-1.06,.39-1.22,1.37-.2,1.23-.4,2.46-.62,3.69-.17,.95,.11,1.36,1.09,1.52,.94,.16,1.87,.31,2.81,.47,.85,.14,1.23-.09,1.39-.94,.27-1.41,.51-2.83,.73-4.25,.1-.64-.12-1.14-.83-1.27-1.12-.21-2.24-.39-3.35-.59Zm-.94,45.91c1.05-.17,2.1-.32,3.14-.51,.96-.17,1.19-.5,1.05-1.46-.2-1.34-.42-2.68-.64-4.02-.12-.74-.54-1.12-1.3-1.01-.94,.13-1.89,.26-2.82,.43-1.11,.2-1.34,.51-1.18,1.61,.19,1.34,.43,2.68,.63,4.02,.1,.65,.45,.97,1.12,.94Zm-9.51-1.06c-.11,.04-.18,.1-.25,.1-.69,0-.69,.45-.68,.95,.01,.58,.43,.54,.81,.55,.52,.01,1.04,.01,1.56,0,.72-.02,1.08-.5,.76-1.11-.13-.25-.54-.36-.87-.57v-3.41h.97c.02,.15,.05,.23,.04,.31-.04,.48,.16,.71,.66,.69,.49-.02,.58-.31,.57-.71,0-.41,.06-.83-.03-1.22-.05-.21-.34-.52-.52-.53-1.58-.04-3.16-.04-4.75,0-.18,0-.51,.43-.48,.61,.09,.61-.46,1.4,.38,1.81,.32,.15,.72,.07,.76-.45,.02-.18,.08-.36,.12-.53h.97v3.52Zm-10.78-1.11c.14-.81,.3-1.83,.53-2.83,.04-.18,.41-.42,.6-.4,.17,.02,.47,.39,.44,.54-.1,.53,.2,.7,.56,.66,.21-.02,.49-.31,.58-.54,.15-.37,.16-.8,.27-1.19,.12-.45-.05-.67-.49-.74-1.5-.26-2.99-.55-4.5-.77-.2-.03-.65,.27-.66,.43-.01,.65-.7,1.36,0,1.95,.28,.24,.74,.23,.86-.33,.04-.17,.12-.34,.19-.52l1.01,.23c-.2,1.13-.37,2.22-.59,3.3-.02,.11-.29,.27-.42,.25-.7-.13-.65,.35-.72,.79-.09,.58,.27,.61,.68,.66,.48,.07,.96,.19,1.44,.27,.77,.13,1.05-.06,.96-.84-.03-.29-.43-.53-.76-.92ZM7.72,10.16l.21-.21c.27,.93,.53,1.87,.82,2.8,.12,.39,.18,.66-.32,.81-.59,.19-.27,.66-.15,.95,.08,.19,.46,.42,.65,.37,1.42-.37,2.83-.77,4.22-1.23,.18-.06,.42-.54,.35-.7-.27-.63-.05-1.5-.87-1.86-.06-.03-.16,.03-.24,.05-.86,.23-.23,.84-.33,1.34l-1.98,.59c-.33-1.09-.65-2.12-.92-3.16-.04-.14,.16-.45,.32-.52,.62-.27,.33-.71,.16-1.01-.11-.19-.5-.35-.73-.31-.56,.09-1.09,.34-1.64,.46-.63,.13-.78,.51-.47,.98,.19,.29,.61,.44,.93,.65Zm27.03,40.53c-.08-.92-.15-1.73-.23-2.54-.07-.68-.1-1.32,.79-1.42,.07-1.32,0-1.39-1.23-1.22-.32,.04-.65,.11-.97,.08-.79-.08-1.01,.34-.79,.96,.1,.29,.52,.47,.98,.85l.27,3.19c-.11,.06-.18,.12-.26,.12-.63,.03-.74,.39-.66,.94,.09,.64,.52,.58,.97,.53,.43-.05,.87-.08,1.3-.11,.44-.03,.91,.01,.88-.66-.02-.65-.27-.99-1.05-.73Z"/><path class="c" d="M25.05,20.5c-.52-1.5-1.01-2.84-1.44-4.21-.05-.15,.22-.56,.4-.61,2.15-.54,4.34-.75,6.55-.53,.89,.09,1.77,.27,2.65,.43,.28,.05,.56,.17,.93,.28l-1.63,4.64c-.73-.96-.84-1.83-.49-2.76,.22-.59,.01-.8-.58-.8-1.77,.01-3.54,0-5.32,0-.58,0-.8,.2-.57,.8,.37,.92,.26,1.79-.51,2.73Z"/><path class="c" d="M26.33,21.03h4.94v.12h-4.94v-.12Z"/><path class="c" d="M22.74,48.03l.42,1.04-1-.17,.58-.87Z"/><path class="c" d="M17.19,8.67l.75,.83-.99,.18,.25-1.01Z"/><path class="c" d="M37.98,10.99c.17-1.08,.33-2.07,.48-3.06,.07-.46,.33-.58,.75-.5,.48,.1,.96,.27,1.44,.26,.85-.03,.94,.39,.81,1.06-.13,.67-.24,1.34-.33,2.01-.07,.48-.27,.75-.81,.64-.74-.15-1.49-.26-2.33-.41Z"/><path class="c" d="M40.67,49.85l-3,.47c-.18-1.09-.38-2.15-.5-3.21-.02-.16,.31-.49,.52-.53,.77-.16,1.55-.23,2.4-.35l.58,3.62Z"/></g></g><g id="b"/></svg>