<?xml version="1.0" encoding="UTF-8"?><svg xmlns="http://www.w3.org/2000/svg" xmlns:xlink="http://www.w3.org/1999/xlink" viewBox="0 0 61.65 50.6"><defs><style>.d{fill:#3e3a39;}.e{clip-path:url(#b);}.f{fill:none;}</style><clipPath id="b"><polygon class="f" points="54.35 6.65 53.45 36.53 51.8 39.29 4.91 39.38 2.21 38.88 2.57 44.56 56.61 50.6 58.49 47.59 61.65 10.04 54.35 6.65"/></clipPath></defs><g id="a"><g><path class="d" d="M50.42,40.07H3.93c-2.17,0-3.93-1.76-3.93-3.93V3.93C0,1.76,1.76,0,3.93,0H50.42c2.17,0,3.93,1.76,3.93,3.93V36.14c0,2.17-1.76,3.93-3.93,3.93ZM3.93,1.55c-1.31,0-2.38,1.07-2.38,2.38V36.14c0,1.31,1.07,2.38,2.38,2.38H50.42c1.31,0,2.38-1.07,2.38-2.38V3.93c0-1.31-1.07-2.38-2.38-2.38H3.93Z"/><rect class="d" x=".78" y="5.1" width="52.8" height="1.55"/><rect class="d" x=".78" y="13.23" width="52.8" height="1.55"/><rect class="d" x="4.05" y="19.27" width="9.59" height="1.78" rx=".25" ry=".25"/><rect class="d" x="4.05" y="23.35" width="15.05" height="1.78" rx=".25" ry=".25"/><rect class="d" x="21.07" y="23.35" width="4.79" height="1.78" rx=".25" ry=".25"/><rect class="d" x="16.27" y="19.27" width="9.59" height="1.78" rx=".25" ry=".25"/><path class="d" d="M48.46,34.08h-16.35c-.51,0-.92-.41-.92-.92v-8.78c0-.51,.41-.92,.92-.92h16.35c.51,0,.92,.41,.92,.92v8.78c0,.51-.41,.92-.92,.92Zm-15.71-1.55h15.08v-7.51h-15.08v7.51Z"/><g class="e"><path class="d" d="M53.44,49.14c-.14,0-.28,0-.43-.02L6.39,44.11c-2.16-.23-3.72-2.17-3.49-4.33L6.34,7.76c.23-2.16,2.17-3.72,4.33-3.49l46.62,5.01c1.04,.11,1.98,.62,2.64,1.44,.66,.82,.96,1.84,.85,2.89l-3.44,32.02c-.11,1.04-.62,1.98-1.44,2.64-.71,.57-1.57,.87-2.46,.87Zm-.26-1.57c.63,.07,1.25-.11,1.75-.51,.49-.4,.81-.97,.87-1.6l3.44-32.02c.07-.63-.11-1.25-.51-1.75-.4-.49-.97-.8-1.6-.87L10.51,5.81c-1.31-.15-2.48,.81-2.62,2.11l-3.44,32.02c-.14,1.31,.81,2.48,2.11,2.62l46.62,5.01Z"/></g></g></g><g id="c"/></svg>