<?xml version="1.0" encoding="UTF-8"?><svg xmlns="http://www.w3.org/2000/svg" viewBox="0 0 196.35 96.85"><defs><style>.c,.d,.e{fill:#3e3a39;}.f{fill:none;stroke:#3e3a39;stroke-miterlimit:10;}.d{letter-spacing:0em;}.d,.e{font-family:ZenKakuGothicNew-Regular, Zen Kaku Gothic New;font-size:13.49px;}.e{glyph-orientation-vertical:0deg;letter-spacing:.2em;text-orientation:upright;writing-mode:tb;}</style></defs><g id="a"><g><rect class="f" x=".5" y=".5" width="195.35" height="95.85"/><line class="f" x1=".35" y1="23.39" x2="195.99" y2="23.39"/><line class="f" x1="28.42" y1=".5" x2="28.42" y2="96.35"/><line class="f" x1="56.27" y1=".5" x2="56.27" y2="23.39"/><line class="f" x1="84.12" y1=".5" x2="84.12" y2="23.39"/><line class="f" x1="111.98" y1=".5" x2="111.98" y2="23.39"/><line class="f" x1="139.83" y1=".5" x2="139.83" y2="23.39"/><line class="f" x1="167.68" y1=".5" x2="167.68" y2="96.35"/><text class="d" transform="translate(7.62 17.5)"><tspan x="0" y="0">日</tspan></text><text class="e" transform="translate(13.85 31.38)"><tspan x="0" y="0">休業日</tspan></text><text class="e" transform="translate(181.49 31.38)"><tspan x="0" y="0">休業日</tspan></text><text class="d" transform="translate(35.01 17.5)"><tspan x="0" y="0">月</tspan></text><text class="d" transform="translate(63.17 17.5)"><tspan x="0" y="0">火</tspan></text><text class="d" transform="translate(91.32 17.5)"><tspan x="0" y="0">水</tspan></text><text class="d" transform="translate(118.71 17.5)"><tspan x="0" y="0">木</tspan></text><text class="d" transform="translate(146.87 17.5)"><tspan x="0" y="0">金</tspan></text><text class="d" transform="translate(175.02 17.5)"><tspan x="0" y="0">土</tspan></text><g><path class="c" d="M67.02,59.95h-.95v-8.77l-1.76,1.1v-.99l1.36-.91h1.34v9.58Z"/><path class="c" d="M70.74,59.41c-.42-.43-.63-1.03-.63-1.81v-4.87c0-.78,.21-1.38,.63-1.81s1.02-.64,1.81-.64,1.39,.21,1.81,.64c.42,.43,.63,1.03,.63,1.81v4.87c0,.78-.21,1.39-.63,1.81-.42,.43-1.02,.64-1.81,.64s-1.39-.21-1.81-.65Zm2.92-.65c.25-.27,.38-.66,.38-1.17v-4.87c0-.5-.12-.89-.38-1.16s-.62-.41-1.11-.41-.87,.14-1.12,.41-.37,.66-.37,1.16v4.87c0,.5,.12,.89,.38,1.17,.25,.27,.62,.41,1.11,.41s.86-.14,1.11-.41Z"/><path class="c" d="M77.55,53.18h1.09v1.08h-1.09v-1.08Zm0,5.69h1.09v1.08h-1.09v-1.08Z"/><path class="c" d="M82.42,59.79c-.36-.17-.64-.45-.83-.82-.19-.37-.29-.86-.32-1.46h.95c.02,.39,.09,.71,.21,.95,.12,.24,.29,.42,.52,.53s.51,.17,.87,.17c.48,0,.85-.13,1.11-.39,.26-.26,.39-.63,.39-1.1v-.82c0-.46-.12-.81-.37-1.06s-.59-.38-1.03-.38h-.68v-.88h.68c.4,0,.7-.11,.92-.32,.22-.21,.33-.51,.33-.9v-.83c0-.42-.12-.74-.35-.97-.24-.23-.57-.34-1-.34-.3,0-.55,.06-.75,.17-.2,.11-.36,.29-.47,.52-.11,.24-.18,.54-.21,.93h-.95c.03-.59,.14-1.07,.32-1.44,.18-.37,.45-.64,.79-.81,.34-.17,.78-.26,1.3-.26,.72,0,1.28,.19,1.67,.58,.39,.39,.59,.94,.59,1.64v.82c0,.34-.09,.65-.27,.94-.18,.29-.43,.52-.76,.69,.37,.12,.66,.34,.87,.68,.21,.33,.31,.74,.31,1.23v.82c0,.5-.1,.93-.29,1.28-.19,.36-.47,.63-.84,.81-.37,.19-.81,.28-1.33,.28-.57,0-1.03-.09-1.4-.26Z"/><path class="c" d="M89.82,59.41c-.42-.43-.63-1.03-.63-1.81v-4.87c0-.78,.21-1.38,.63-1.81s1.02-.64,1.81-.64,1.39,.21,1.81,.64c.42,.43,.63,1.03,.63,1.81v4.87c0,.78-.21,1.39-.63,1.81-.42,.43-1.02,.64-1.81,.64s-1.39-.21-1.81-.65Zm2.92-.65c.25-.27,.38-.66,.38-1.17v-4.87c0-.5-.12-.89-.38-1.16s-.62-.41-1.11-.41-.87,.14-1.12,.41-.37,.66-.37,1.16v4.87c0,.5,.12,.89,.38,1.17,.25,.27,.62,.41,1.11,.41s.86-.14,1.11-.41Z"/><path class="c" d="M99.54,56.29c-.18-.09-.39-.22-.61-.38l-.11-.08c-.18-.13-.33-.23-.46-.3s-.25-.1-.37-.1-.2,.06-.27,.17c-.06,.11-.1,.27-.1,.48v.31h-.78v-.3c0-.5,.09-.89,.28-1.15,.19-.26,.46-.39,.83-.39,.19,0,.37,.04,.54,.13s.36,.22,.6,.4c.02,.02,.04,.03,.06,.05,.02,.01,.04,.03,.06,.04,0,0,.02,.02,.03,.02,.01,0,.02,.01,.03,.02,.18,.13,.32,.22,.43,.29,.11,.06,.22,.1,.33,.1,.14,0,.25-.06,.32-.18,.07-.12,.11-.29,.11-.53v-.4h.78v.39c0,.51-.1,.89-.29,1.16-.2,.26-.48,.39-.85,.39-.2,0-.4-.05-.58-.14Z"/><path class="c" d="M106.35,59.95h-.95v-8.77l-1.76,1.1v-.99l1.36-.91h1.34v9.58Z"/><path class="c" d="M112.76,55.19l.13,.24c-.13,.21-.31,.36-.54,.47-.23,.11-.49,.16-.78,.16-.48,0-.89-.1-1.24-.3-.35-.2-.62-.48-.81-.85-.19-.37-.28-.8-.28-1.29v-.69c0-.56,.09-1.03,.28-1.43,.19-.39,.46-.7,.82-.9,.36-.21,.79-.31,1.3-.31s.94,.1,1.3,.31c.36,.21,.63,.51,.82,.91,.19,.4,.28,.87,.28,1.42v.62c0,.36-.04,.71-.13,1.04s-.21,.7-.39,1.09c-.02,.06-.05,.11-.08,.17-.03,.06-.06,.11-.08,.17l-1.8,3.93h-1.05l2.23-4.77Zm-.03-.46c.25-.28,.38-.68,.38-1.2v-.69c0-.53-.13-.94-.38-1.22-.25-.29-.61-.43-1.07-.43s-.83,.14-1.08,.43c-.25,.29-.38,.7-.38,1.23v.69c0,.51,.13,.91,.38,1.19,.25,.28,.61,.42,1.08,.42s.82-.14,1.07-.42Z"/><path class="c" d="M116.82,53.18h1.09v1.08h-1.09v-1.08Zm0,5.69h1.09v1.08h-1.09v-1.08Z"/><path class="c" d="M121.69,59.79c-.36-.17-.64-.45-.83-.82-.19-.37-.29-.86-.32-1.46h.95c.02,.39,.09,.71,.21,.95,.12,.24,.29,.42,.52,.53s.51,.17,.87,.17c.48,0,.85-.13,1.11-.39,.26-.26,.39-.63,.39-1.1v-.82c0-.46-.12-.81-.37-1.06s-.59-.38-1.03-.38h-.68v-.88h.68c.4,0,.7-.11,.92-.32,.22-.21,.33-.51,.33-.9v-.83c0-.42-.12-.74-.35-.97-.24-.23-.57-.34-1-.34-.3,0-.55,.06-.75,.17-.2,.11-.36,.29-.47,.52-.11,.24-.18,.54-.21,.93h-.95c.03-.59,.14-1.07,.32-1.44,.18-.37,.45-.64,.79-.81,.34-.17,.78-.26,1.3-.26,.72,0,1.28,.19,1.67,.58,.39,.39,.59,.94,.59,1.64v.82c0,.34-.09,.65-.27,.94-.18,.29-.43,.52-.76,.69,.37,.12,.66,.34,.87,.68,.21,.33,.31,.74,.31,1.23v.82c0,.5-.1,.93-.29,1.28-.19,.36-.47,.63-.84,.81-.37,.19-.81,.28-1.33,.28-.57,0-1.03-.09-1.4-.26Z"/><path class="c" d="M129.09,59.41c-.42-.43-.63-1.03-.63-1.81v-4.87c0-.78,.21-1.38,.63-1.81s1.02-.64,1.81-.64,1.39,.21,1.81,.64c.42,.43,.63,1.03,.63,1.81v4.87c0,.78-.21,1.39-.63,1.81-.42,.43-1.02,.64-1.81,.64s-1.39-.21-1.81-.65Zm2.92-.65c.25-.27,.38-.66,.38-1.17v-4.87c0-.5-.12-.89-.38-1.16s-.62-.41-1.11-.41-.87,.14-1.12,.41-.37,.66-.37,1.16v4.87c0,.5,.12,.89,.38,1.17,.25,.27,.62,.41,1.11,.41s.86-.14,1.11-.41Z"/></g></g></g><g id="b"/></svg>