<?xml version="1.0" encoding="UTF-8"?><svg xmlns="http://www.w3.org/2000/svg" viewBox="0 0 53.84 53.5"><defs><style>.c{fill:#3e3a39;}</style></defs><g id="a"><g><path class="c" d="M26.93,0c8.81,0,17.62,0,26.43,0q.48,0,.48,.49c0,17.51,0,35.02,0,52.54q0,.46-.48,.46c-17.62,0-35.24,0-52.86,0q-.5,0-.49-.51c0-15.35,0-30.69,0-46.04C0,4.74,.01,2.53,0,.31,0,.05,.08,0,.33,0,9.19,0,18.06,0,26.93,0h0Zm.07,3.02c-6.45,0-12.9,0-19.35,0-.46,0-.91,.03-1.35,.17-1.12,.33-1.74,1.15-1.71,2.32,0,.47,.08,.94,.12,1.41,.2,2.39,.4,4.78,.6,7.16,.17,1.95,.34,3.91,.51,5.86,.18,2.07,.35,4.14,.53,6.21,.17,1.92,.34,3.85,.51,5.77,.22,2.58,.44,5.16,.66,7.74,.23,2.67,.45,5.33,.69,8,.06,.65,.34,1.2,.86,1.61,.67,.52,1.45,.69,2.28,.69,2.78,0,5.55,0,8.33,0,.25,0,.35,.05,.34,.33-.02,.56,0,1.12,0,1.68,0,.18,.04,.25,.24,.25,4.43,0,8.86,0,13.29,0,.17,0,.21-.06,.21-.21,0-.55,.01-1.1,0-1.65,0-.25,.07-.3,.31-.3,2.54,0,5.09,0,7.63,0,.28,0,.56-.02,.84-.05,1.28-.15,2.06-.91,2.16-2.17,.15-1.84,.38-3.67,.57-5.51,.17-1.69,.37-3.38,.55-5.07,.18-1.64,.35-3.28,.52-4.93,.16-1.49,.32-2.98,.47-4.47,.18-1.69,.36-3.38,.54-5.07,.18-1.71,.37-3.42,.56-5.13,.21-1.95,.41-3.9,.62-5.85,.21-2.02,.43-4.03,.63-6.05,.07-.67-.06-1.31-.51-1.85-.56-.66-1.3-.9-2.14-.9-6.49,0-12.98,0-19.47,0Z"/><path class="c" d="M42.51,14.38c0,1.7,0,3.4,0,5.1,0,.2-.05,.31-.23,.4-2.26,1.12-4.23,2.6-5.84,4.55-.94,1.14-1.66,2.41-2.07,3.84-.06,.22-.15,.28-.37,.28-3.42,0-6.84,0-10.27,.02-.28,0-.24-.14-.2-.31,.37-1.56,.89-3.07,1.61-4.51,.98-1.96,2.21-3.75,3.66-5.39,2.41-2.73,5.23-4.94,8.35-6.8,1.11-.66,2.27-1.25,3.43-1.82,.54-.27,1.12-.45,1.65-.72,.22-.11,.29-.04,.29,.2,0,1.72,0,3.44,0,5.16h0Z"/><path class="c" d="M38.67,9.11c-.56,.36-1.13,.67-1.69,.99-1.45,.84-2.83,1.78-4.17,2.78-1.46,1.08-2.86,2.23-4.21,3.44-.92,.82-1.67,1.81-2.39,2.81-.13,.17-.25,.18-.41,.18-4.31,0-8.62,0-12.94,0-.72,0-.71,0-.72-.71-.02-3.05-.04-6.09-.06-9.14,0-.4,0-.4,.39-.4,8.4,.01,16.8,.03,25.21,.04,.33,0,.66,0,.98,0Z"/><path class="c" d="M26.72,51.17c-1.87,0-3.73,0-5.6,0-.24,0-.29-.07-.29-.29,0-2.66,.08-5.31,.33-7.96,.14-1.51,.32-3.01,.58-4.51,.04-.22,.13-.26,.32-.26,1.66,0,3.33,0,4.99,0,1.93,0,3.87,0,5.8,0,.17,0,.33-.04,.29,.26-.42,2.81-.45,5.64-.48,8.47-.02,1.33-.02,2.67-.01,4,0,.25-.08,.28-.29,.28-1.88,0-3.75,0-5.63,0h0Z"/><path class="c" d="M39.25,30.13c.63-.46,1.3-.7,2.06-.65,.37,.02,.72,.11,1.03,.33,.35,.24,.47,.58,.47,1,0,1.79,0,3.58,0,5.36,0,.27,0,.54,.01,.81,0,.19-.05,.27-.26,.27-.61-.01-1.22-.02-1.83,0-.23,0-.27-.08-.27-.28,0-1.62,0-3.25,0-4.87,0-.24,0-.47-.26-.59-.26-.11-.51-.07-.74,.08-.18,.11-.23,.28-.23,.5,0,1.6,0,3.21,0,4.81,0,.27-.08,.32-.32,.31-.6-.02-1.2-.01-1.8,0-.19,0-.27-.03-.27-.25,0-2.32,0-4.64,0-6.96,0-.24,.08-.29,.3-.28,.56,.01,1.12,0,1.68,0q.38,0,.42,.41Z"/><path class="c" d="M28.45,34.2c.07-.34,.15-.69,.22-1.03,.23-1.11,.47-2.23,.69-3.34,.04-.2,.13-.24,.31-.24,.41,.01,.81,.02,1.22,0,.24-.01,.27,.07,.23,.28-.29,1.41-.56,2.82-.84,4.23-.19,.94-.37,1.87-.55,2.81-.03,.17-.09,.24-.28,.24-.91-.01-1.82,0-2.73,0-.18,0-.23-.07-.25-.23-.27-1.97-.54-3.94-.81-5.91-.05-.39-.11-.78-.17-1.17-.03-.17,0-.25,.2-.24,.61,.01,1.22,0,1.83,0,.17,0,.23,.05,.25,.23,.21,1.46,.43,2.92,.64,4.37h.05Z"/><path class="c" d="M10.81,33.32c0-1.17,0-2.34,0-3.51,0-.21,.03-.31,.28-.3,1.26,.01,2.51,.01,3.77,0,.19,0,.25,.06,.24,.25-.01,.43,0,.85,0,1.28,0,.18-.06,.23-.23,.23-.46-.01-.93,0-1.39,0-.18,0-.24,.06-.23,.24,.01,.29,.01,.58,0,.87,0,.18,.05,.26,.25,.25,.44-.01,.89,0,1.33,0,.17,0,.24,.04,.24,.22-.01,.31-.01,.62,0,.93,0,.17-.05,.22-.22,.22-.45,0-.91,0-1.36,0-.19,0-.28,.04-.27,.25,.02,.36,.01,.72,0,1.07,0,.17,.04,.23,.22,.23,.49-.01,.99,0,1.48,0,.17,0,.24,.04,.24,.23-.01,.41,0,.81,0,1.22,0,.16-.05,.21-.22,.21-1.3,0-2.59,0-3.89,0-.22,0-.25-.09-.25-.28,0-1.19,0-2.38,0-3.57Z"/><path class="c" d="M20.77,33.36c0-1.2,0-2.4,0-3.59,0-.21,.06-.26,.26-.26,1.27,0,2.53,0,3.8,0,.2,0,.25,.07,.24,.25-.01,.41-.02,.81,0,1.22,0,.22-.06,.29-.28,.28-.45-.01-.91,0-1.36,0-.15,0-.22,.04-.22,.21,.01,.31,0,.62,0,.93,0,.16,.04,.22,.21,.22,.42-.01,.83,.02,1.25-.01,.31-.02,.38,.09,.35,.37-.02,.23-.02,.47,0,.69,.03,.27-.08,.32-.33,.31-.43-.02-.87,0-1.3,0-.18,0-.23,.06-.23,.24,.01,.36,.01,.72,0,1.07,0,.18,.04,.25,.24,.25,.49-.01,.99,0,1.48,0,.17,0,.25,.03,.24,.22-.01,.41-.01,.81,0,1.22,0,.17-.06,.22-.22,.22-1.31,0-2.63,0-3.94,0-.22,0-.19-.14-.19-.27,0-1.18,0-2.36,0-3.54h0Z"/><path class="c" d="M31.68,33.32c0-1.18,0-2.36,0-3.54,0-.22,.06-.27,.28-.27,1.25,0,2.49,0,3.74,0,.21,0,.29,.04,.28,.27-.02,.41-.01,.83,0,1.25,0,.18-.06,.24-.23,.24-.45,0-.91,0-1.36-.01-.19,0-.28,.05-.26,.26,.02,.28,.02,.56,0,.84-.02,.23,.08,.27,.28,.26,.43-.02,.87,0,1.3-.01,.18,0,.23,.05,.23,.23-.01,.31-.01,.62,0,.93,0,.17-.06,.21-.22,.21-.46,0-.93,0-1.39,0-.2,0-.25,.06-.24,.25,.01,.36,.01,.72,0,1.07,0,.2,.07,.24,.25,.23,.49-.01,.99,0,1.48,0,.15,0,.23,.02,.23,.2-.01,.42,0,.83,0,1.25,0,.15-.05,.21-.2,.21-1.31,0-2.63,0-3.94,0-.2,0-.21-.1-.21-.25,0-1.2,0-2.4,0-3.6h0Z"/><path class="c" d="M15.93,33.27c0-1.17,0-2.34,0-3.51,0-.26,.08-.32,.33-.32,.61,.02,1.22,.02,1.83,0,.24,0,.31,.07,.31,.31,0,1.56,0,3.11-.01,4.67,0,.25,.11,.5,0,.76-.05,.13,.02,.21,.18,.21,.43,0,.87,0,1.3,0,.19,0,.28,.03,.27,.25-.02,.42-.01,.85,0,1.28,0,.15-.03,.22-.2,.22-1.26,0-2.51-.01-3.77,0-.24,0-.24-.11-.24-.29,0-1.19,0-2.38,0-3.57Z"/><path class="c" d="M37.37,40.52c0,.92-.76,1.66-1.68,1.66-.93,0-1.69-.76-1.67-1.71,.02-.94,.72-1.66,1.69-1.66,.94,0,1.67,.75,1.66,1.7Zm-1.69-1.53c-.79-.02-1.49,.7-1.5,1.48,0,.83,.68,1.53,1.49,1.53,.85,0,1.52-.66,1.53-1.52,0-.83-.67-1.49-1.52-1.49Z"/><path class="c" d="M36.67,41.49c-.3,.08-.38-.04-.36-.29,0-.11-.02-.23-.03-.35-.02-.13-.1-.22-.23-.23-.23-.01-.46,0-.7-.01-.13,0-.12,.09-.12,.18,0,.18,0,.37,0,.55,0,.09,0,.18-.13,.17-.1,0-.16-.03-.16-.15,0-.61,0-1.22,0-1.83,0-.15,.1-.14,.19-.14,.28,0,.56,0,.84,0,.24,0,.47,.06,.58,.3,.11,.24,.07,.47-.09,.67-.03,.03-.1,.08-.07,.11,.29,.25,.12,.61,.23,.9,.01,.03,.03,.07,.04,.11Zm-.99-1.85q-.46,0-.45,.46s0,.08,0,.12c0,.09,.03,.15,.13,.15,.24,0,.48,.03,.72-.03,.17-.04,.24-.16,.24-.31,0-.17-.06-.3-.24-.35-.13-.04-.27-.02-.4-.03Z"/></g></g><g id="b"/></svg>