<svg id="圖層_1" data-name="圖層 1" xmlns="http://www.w3.org/2000/svg" viewBox="0 0 125.66 121.98"><defs><style>.cls-1{font-size:22.91px;fill:#d10000;font-family:ZenKakuGothicNew-Bold, Zen Kaku Gothic New;font-weight:700;}.cls-2{fill:none;stroke:#d10000;stroke-miterlimit:10;stroke-width:2px;}</style></defs><text class="cls-1" transform="translate(39.36 54.87)">人気<tspan x="0" y="28.12">商品</tspan></text><path class="cls-2" d="M108.46,61c0,4.49-8.52,7.58-9.83,11.63s3.66,11.7,1.12,15.19S88.48,88.87,85,91.43s-3.82,11.6-8,13-9.61-5.77-14.1-5.77-10,7.09-14.1,5.77-4.52-10.41-8-13-12.23-.09-14.8-3.62,2.48-11,1.11-15.19S17.2,65.48,17.2,61,25.72,53.41,27,49.36c1.37-4.2-3.66-11.7-1.11-15.2s11.26-1,14.8-3.62,3.81-11.59,8-13,9.61,5.78,14.1,5.78,10-7.09,14.1-5.78,4.52,10.42,8,13,12.23.09,14.8,3.62-2.49,11-1.12,15.2C99.94,53.41,108.46,56.5,108.46,61Z"/></svg>