<?xml version="1.0" encoding="UTF-8"?><svg xmlns="http://www.w3.org/2000/svg" viewBox="0 0 43.87 43.87"><defs><style>.c{fill:none;stroke:#000;stroke-linecap:round;stroke-linejoin:round;stroke-width:3px;}</style></defs><g id="a"><g><path d="M43.38,40.98l-14.06-14.06c1.44-1.76,2.55-3.84,3.17-6.17C34.82,11.95,29.55,2.89,20.75,.55,11.95-1.78,2.89,3.48,.55,12.29c-2.33,8.8,2.93,17.86,11.73,20.2,5.3,1.4,10.67,.04,14.63-3.17l14.06,14.06c.66,.66,1.73,.66,2.4,0,.66-.66,.66-1.73,0-2.4ZM13.11,29.37C6.03,27.49,1.79,20.2,3.67,13.11c.62-2.34,1.83-4.37,3.44-5.98,3.24-3.24,8.08-4.72,12.82-3.47,7.08,1.88,11.32,9.17,9.44,16.25-.91,3.43-3.1,6.3-6.17,8.09-3.07,1.78-6.65,2.26-10.08,1.36Z"/><path class="c" d="M11.43,10.37c3.59-3.12,9.02-2.74,12.15,.85"/></g></g><g id="b"/></svg>