<?xml version="1.0" encoding="UTF-8"?><svg id="a" xmlns="http://www.w3.org/2000/svg" viewBox="0 0 125.66 121.98"><defs><style>.b,.c,.d,.e{stroke:#3e3a39;stroke-width:2px;}.b,.d{fill:none;}.b,.e{stroke-miterlimit:10;}.f{fill:#3e3a39;opacity:.3;}.c,.d{stroke-linecap:round;stroke-linejoin:round;}.c,.e{fill:#fff;}</style></defs><path class="f" d="M70.81,39.81s-27.36,8.96-30.03,30.99c0,0-7.75,25.42,30.03,32.93,0,0,28.09,7.26,37.29-11.86,6.86-14.27,10.92-36.13-5.91-45.78-8.23-4.72-22.05-9.33-31.38-6.28Z"/><g><g><path class="e" d="M61.39,33.41h23.03v5.98c0,5.78-4.69,10.47-10.47,10.47h-2.09c-5.78,0-10.47-4.69-10.47-10.47v-5.98h0Z"/><polygon class="c" points="61.8 28.06 58.51 33.82 84.74 33.82 84.74 27.72 62.07 27.72 61.8 28.06"/><path class="c" d="M84.83,27.58l.82-5.76-29.61-4.94s-.16,5.76,6.58,10.69h22.21Z"/></g><path class="c" d="M93.47,92.87v-31.65s-1.65-5.69-7.81-8.58h-26.23s-3.79-.43-7.08,4.51l-7.4,11.52h-11.52s-4.52,.41-4.52,5.35v3.63h22.21l4.96-8.63c.44-.77,1.62-.46,1.62,.43v23.9"/><line class="d" x1="86.48" y1="69.07" x2="86.48" y2="92.87"/><g><path class="e" d="M17.92,53.28h1.92v30.44h-1.92c-3.48,0-6.3-2.82-6.3-6.3v-17.83c0-3.48,2.82-6.3,6.3-6.3Z"/><path class="e" d="M37.26,72.61h1.92v30.44h-1.92c-3.48,0-6.3-2.82-6.3-6.3v-17.83c0-3.48,2.82-6.3,6.3-6.3Z" transform="translate(-52.77 122.9) rotate(-90)"/></g><polygon class="d" points="79.45 61.26 80.48 63.34 82.77 63.67 81.11 65.29 81.51 67.58 79.45 66.5 77.4 67.58 77.79 65.29 76.13 63.67 78.43 63.34 79.45 61.26"/><path class="b" d="M60.06,52.64s2.15,3.68-1.97,6.15c0,0-4.11,1.65-5.76-1.65"/></g></svg>