<?xml version="1.0" encoding="UTF-8"?><svg id="a" xmlns="http://www.w3.org/2000/svg" viewBox="0 0 139.69 121.98"><defs><style>.b,.c{fill:#fff;}.d{fill:#3e3a39;opacity:.3;}.c,.e{stroke:#3e3a39;stroke-linecap:round;stroke-linejoin:round;stroke-width:2px;}.e{fill:none;}</style></defs><path class="d" d="M93.06,30.81s-27.36,8.96-30.03,30.99c0,0-7.75,25.42,30.03,32.93,0,0,28.09,7.26,37.29-11.86,6.86-14.27,10.92-36.13-5.91-45.78-8.23-4.72-22.05-9.33-31.38-6.28Z"/><g><polygon class="b" points="29.94 30.67 21.59 75.9 53.49 75.9 62.46 37.03 29.94 30.67"/><polyline class="c" points="30.92 75.58 21.29 75.58 24.42 58.38"/><polyline class="c" points="29.03 33.04 30.47 25.89 81.02 25.89 72.4 75.58 44.68 75.58"/><polyline class="c" points="87.93 75.58 77.9 75.58 85.48 31.57 105.8 31.57 121.36 60.09 119.23 75.58 101.7 75.58"/><polyline class="e" points="88.25 53.03 90.4 37.06 101.98 37.06 110.65 53.4 88.25 53.4"/><line class="e" x1="35.47" y1="33.04" x2="6.03" y2="33.04"/><line class="e" x1="43.84" y1="41.49" x2="14.4" y2="41.49"/><line class="e" x1="39.57" y1="58.38" x2="10.12" y2="58.38"/><line class="e" x1="30.4" y1="49.93" x2="3.4" y2="49.93"/><circle class="c" cx="94.86" cy="75.59" r="6.84"/><circle class="c" cx="37.84" cy="75.59" r="6.84"/></g></svg>