<?xml version="1.0" encoding="UTF-8"?><svg xmlns="http://www.w3.org/2000/svg" viewBox="0 0 92.68 76.88"><defs><style>.d,.e{fill:none;}.d,.e,.f{stroke:#d40a26;stroke-width:2px;}.d,.f{stroke-miterlimit:10;}.e{stroke-linecap:round;stroke-linejoin:round;}.g{fill:#d40a26;opacity:.3;}.f{fill:#fff;}</style></defs><g id="a"><g><path class="g" d="M48.69,10.48s-27.84,9.11-30.54,31.53c0,0-7.88,25.86,30.54,33.5,0,0,28.57,7.39,37.93-12.07,6.98-14.52,11.11-36.76-6.02-46.57-8.37-4.8-22.44-9.49-31.92-6.39Z"/><g><path class="f" d="M67.54,15.52H2.02c-.58,0-.98-.59-.76-1.13L6.45,1.51c.13-.31,.43-.51,.76-.51H61.82c.32,0,.62,.19,.75,.49l5.72,12.87c.24,.54-.16,1.15-.75,1.15Z"/><rect class="f" x="1" y="15.52" width="67.56" height="44.31"/><rect class="d" x="7.87" y="43.33" width="15.26" height="10.9"/><rect class="f" x="27.91" y="1" width="13.73" height="37.69"/><line class="e" x1="10.7" y1="47.25" x2="20.48" y2="47.25"/><line class="e" x1="10.7" y1="50.74" x2="15.28" y2="50.74"/></g></g></g><g id="b"/><g id="c"/></svg>