<?xml version="1.0" encoding="UTF-8"?><svg id="a" xmlns="http://www.w3.org/2000/svg" viewBox="0 0 125.66 121.98"><defs><style>.b,.c{fill:none;}.b,.c,.d{stroke:#3e3a39;stroke-width:2px;}.b,.d{stroke-miterlimit:10;}.e{fill:#3e3a39;opacity:.3;}.c{stroke-linecap:round;stroke-linejoin:round;}.d{fill:#fff;}</style></defs><path class="e" d="M70.81,36.86s-27.36,8.96-30.03,30.99c0,0-7.75,25.42,30.03,32.93,0,0,28.09,7.26,37.29-11.86,6.86-14.27,10.92-36.13-5.91-45.78-8.23-4.72-22.05-9.33-31.38-6.28Z"/><path class="d" d="M36.55,37.97l-9.63,7.37v39.47c0,1.67,1.35,3.02,3.02,3.02h60.25c1.67,0,3.02-1.35,3.02-3.02V45.34l-9.93-7.93"/><polyline class="d" points="36.55 52.7 36.55 19.84 83.58 19.84 83.58 53.84"/><polyline class="b" points="26.92 45.34 60.06 70.89 93.21 46.4"/><line class="b" x1="50.71" y1="64.03" x2="28.05" y2="86.7"/><line class="b" x1="69.41" y1="64.03" x2="92.08" y2="86.7"/><circle class="b" cx="60.63" cy="41.65" r="11.62"/><polyline class="c" points="56.01 41.65 59.21 44.77 64.88 39.1"/><line class="c" x1="26.92" y1="65.73" x2="17.85" y2="65.73"/><line class="c" x1="20.69" y1="74.26" x2="11.62" y2="74.26"/></svg>