<?xml version="1.0" encoding="UTF-8"?><svg xmlns="http://www.w3.org/2000/svg" viewBox="0 0 107.19 85.58"><defs><style>.d,.e{fill:none;}.d,.e,.f{stroke:#d40a26;stroke-width:2px;}.d,.f{stroke-miterlimit:10;}.e{stroke-linecap:round;stroke-linejoin:round;}.g{fill:#d40a26;opacity:.3;}.f{fill:#fff;}</style></defs><g id="a"><g><path class="g" d="M62.21,19.17s-27.84,9.11-30.54,31.53c0,0-7.88,25.86,30.54,33.5,0,0,28.57,7.39,37.93-12.07,6.98-14.52,11.11-36.76-6.02-46.57-8.37-4.8-22.44-9.49-31.92-6.39Z"/><path class="f" d="M27.36,20.3l-9.8,7.49v40.16c0,1.7,1.38,3.07,3.07,3.07h61.29c1.7,0,3.07-1.38,3.07-3.07V27.8l-10.1-8.07"/><polyline class="f" points="27.36 35.29 27.36 1.86 75.2 1.86 75.2 36.44"/><polyline class="d" points="17.56 27.8 51.28 53.8 85 28.87"/><line class="d" x1="41.77" y1="46.82" x2="18.72" y2="69.87"/><line class="d" x1="60.79" y1="46.82" x2="83.85" y2="69.87"/><circle class="d" cx="51.86" cy="24.05" r="11.82"/><polyline class="e" points="47.16 24.05 50.42 27.22 56.18 21.46"/><line class="e" x1="17.56" y1="48.55" x2="8.34" y2="48.55"/><line class="e" x1="11.22" y1="57.22" x2="2" y2="57.22"/></g></g><g id="b"/><g id="c"/></svg>