<?xml version="1.0" encoding="UTF-8"?><svg id="a" xmlns="http://www.w3.org/2000/svg" viewBox="0 0 125.66 121.98"><defs><style>.b,.c{fill:none;}.b,.c,.d{stroke:#3e3a39;stroke-width:2px;}.b,.d{stroke-miterlimit:10;}.e{fill:#3e3a39;opacity:.3;}.c{stroke-linecap:round;stroke-linejoin:round;}.d{fill:#fff;}</style></defs><path class="e" d="M64.66,33.01s-27.36,8.96-30.03,30.99c0,0-7.75,25.42,30.03,32.93,0,0,28.09,7.26,37.29-11.86,6.86-14.27,10.92-36.13-5.91-45.78-8.23-4.72-22.05-9.33-31.38-6.28Z"/><g><path class="d" d="M83.18,37.96H18.77c-.57,0-.96-.58-.75-1.11l5.11-12.66c.12-.31,.42-.51,.75-.51h53.67c.32,0,.61,.19,.74,.48l5.63,12.66c.24,.53-.15,1.14-.74,1.14Z"/><rect class="d" x="17.77" y="37.96" width="66.41" height="43.56"/><rect class="b" x="24.52" y="65.3" width="15" height="10.71"/><rect class="d" x="44.23" y="23.69" width="13.5" height="37.05"/><line class="c" x1="27.31" y1="69.16" x2="36.92" y2="69.16"/><line class="c" x1="27.31" y1="72.59" x2="31.81" y2="72.59"/></g></svg>