<?xml version="1.0" encoding="UTF-8"?><svg id="a" xmlns="http://www.w3.org/2000/svg" viewBox="0 0 125.66 121.98"><defs><style>.b,.c{fill:#3e3a39;}.d,.e,.f{fill:none;}.d,.e,.f,.g{stroke:#3e3a39;}.d,.e,.g{stroke-miterlimit:10;}.d,.g{stroke-width:2px;}.c{opacity:.3;}.e,.f{stroke-width:1.6px;}.f{stroke-linecap:round;stroke-linejoin:round;}.g{fill:#fff;}</style></defs><path class="c" d="M57.54,46.62s-27.36,8.96-30.03,30.99c0,0-7.75,25.42,30.03,32.93,0,0,28.09,7.26,37.29-11.86,6.86-14.27,10.92-36.13-5.91-45.78-8.23-4.72-22.05-9.33-31.38-6.28Z"/><g><rect class="g" x="24.89" y="10.08" width="54.05" height="88.5" rx="6.62" ry="6.62"/><rect class="d" x="29.48" y="14.8" width="44.87" height="78.92" rx="3.84" ry="3.84"/><g><rect class="b" x="46.05" y="19.47" width="11.35" height="1.34" rx=".61" ry=".61"/><circle class="b" cx="59.07" cy="20.14" r=".67"/></g><g><polyline class="f" points="35.97 43.96 39.85 43.96 44.71 61.01 62.77 61.01 62.77 51.36 61.33 50.64"/><line class="f" x1="40.9" y1="48.07" x2="44.36" y2="48.41"/><path class="f" d="M44.71,61.01l-3.2,2.63c-.88,.73-.37,2.16,.78,2.16h21.1"/><circle class="e" cx="47.45" cy="67.69" r="1.88"/><circle class="e" cx="58.07" cy="67.69" r="1.88"/><circle class="e" cx="52.76" cy="49.52" r="6"/><polyline class="f" points="50.17 49.52 51.9 51.24 55.67 47.3"/></g></g></svg>