<?xml version="1.0" encoding="UTF-8"?><svg xmlns="http://www.w3.org/2000/svg" viewBox="0 0 78.19 104.58"><defs><style>.d,.e{fill:#d40a26;}.f,.g,.h{fill:none;}.f,.g,.h,.i{stroke:#d40a26;}.f,.g,.i{stroke-miterlimit:10;}.f,.h{stroke-width:1.6px;}.g,.i{stroke-width:2px;}.e{opacity:.3;}.h{stroke-linecap:round;stroke-linejoin:round;}.i{fill:#fff;}</style></defs><g id="a"><g><path class="e" d="M34.21,38.17S6.38,47.29,3.67,69.7c0,0-7.88,25.86,30.54,33.5,0,0,28.57,7.39,37.93-12.07,6.98-14.52,11.11-36.76-6.02-46.57-8.37-4.8-22.44-9.49-31.92-6.39Z"/><g><rect class="i" x="1" y="1" width="54.98" height="90.03" rx="6.62" ry="6.62"/><rect class="g" x="5.67" y="5.81" width="45.64" height="80.28" rx="3.84" ry="3.84"/><g><rect class="d" x="22.53" y="10.56" width="11.54" height="1.36" rx=".68" ry=".68"/><circle class="d" cx="35.77" cy="11.24" r=".68"/></g><g><polyline class="h" points="12.27 35.47 16.22 35.47 21.16 52.81 39.54 52.81 39.54 42.99 38.07 42.26"/><line class="h" x1="17.28" y1="39.65" x2="20.81" y2="40"/><path class="h" d="M21.16,52.81l-3.25,2.68c-.9,.74-.38,2.2,.79,2.2h21.46"/><circle class="f" cx="23.95" cy="59.61" r="1.92"/><circle class="f" cx="34.75" cy="59.61" r="1.92"/><circle class="f" cx="29.35" cy="41.13" r="6.1"/><polyline class="h" points="26.72 41.13 28.48 42.87 32.31 38.86"/></g></g></g></g><g id="b"/><g id="c"/></svg>