<?xml version="1.0" encoding="UTF-8"?><svg xmlns="http://www.w3.org/2000/svg" viewBox="0 0 136.19 72.41"><defs><style>.d,.e{fill:#fff;}.f{fill:none;}.f,.e{stroke:#d40a26;stroke-linecap:round;stroke-linejoin:round;stroke-width:2px;}.g{fill:#d40a26;opacity:.3;}</style></defs><g id="a"><g><path class="g" d="M92.21,6.01s-27.84,9.11-30.54,31.53c0,0-7.88,25.86,30.54,33.5,0,0,28.57,7.39,37.93-12.07,6.98-14.52,11.11-36.76-6.02-46.57-8.37-4.8-22.44-9.49-31.92-6.39Z"/><g><polygon class="d" points="28 5.86 19.51 51.88 51.96 51.88 61.09 12.34 28 5.86"/><polyline class="e" points="29 51.55 19.21 51.55 22.38 34.05"/><polyline class="e" points="27.08 8.28 28.55 1 79.97 1 71.19 51.55 43 51.55"/><polyline class="e" points="87 51.55 76.79 51.55 84.5 6.77 105.17 6.77 121 35.8 118.84 51.55 101 51.55"/><polyline class="f" points="87.32 28.61 89.51 12.37 101.29 12.37 110.1 28.99 87.32 28.99"/><line class="f" x1="33.63" y1="8.28" x2="3.68" y2="8.28"/><line class="f" x1="42.14" y1="16.87" x2="12.19" y2="16.87"/><line class="f" x1="37.79" y1="34.05" x2="7.84" y2="34.05"/><line class="f" x1="28.47" y1="25.46" x2="1" y2="25.46"/><circle class="e" cx="94.04" cy="51.56" r="6.96"/><circle class="e" cx="36.04" cy="51.56" r="6.96"/></g></g></g><g id="b"/><g id="c"/></svg>