<?xml version="1.0" encoding="UTF-8"?><svg xmlns="http://www.w3.org/2000/svg" viewBox="0 0 105.19 90.74"><defs><style>.d,.e{fill:none;}.d,.e,.f,.g{stroke:#d40a26;stroke-width:2px;}.d,.f{stroke-miterlimit:10;}.e,.g{stroke-linecap:round;stroke-linejoin:round;}.h{fill:#d40a26;opacity:.3;}.f,.g{fill:#fff;}</style></defs><g id="a"><g><path class="h" d="M61.21,24.33s-27.84,9.11-30.54,31.53c0,0-7.88,25.86,30.54,33.5,0,0,28.57,7.39,37.93-12.07,6.98-14.52,11.11-36.76-6.02-46.57-8.37-4.8-22.44-9.49-31.92-6.39Z"/><g><g><path class="f" d="M51.63,17.81h23.43v5.02c0,6.47-5.25,11.72-11.72,11.72h0c-6.47,0-11.72-5.25-11.72-11.72v-5.02h0Z"/><polygon class="g" points="52.05 12.37 48.7 18.23 75.39 18.23 75.39 12.02 52.33 12.02 52.05 12.37"/><path class="g" d="M75.48,11.88l.84-5.86L46.19,1s-.16,5.86,6.69,10.88h22.59Z"/></g><path class="g" d="M84.26,78.3V46.11s-1.67-5.78-7.95-8.73h-26.69s-3.86-.44-7.2,4.58l-7.53,11.72h-11.72s-4.6,.42-4.6,5.44v3.69h22.59l5.05-8.78c.45-.78,1.65-.46,1.65,.44v24.31"/><line class="e" x1="77.15" y1="54.09" x2="77.15" y2="78.3"/><g><path class="f" d="M7.3,38.03h2.06v30.96h-2.06c-3.48,0-6.3-2.82-6.3-6.3v-18.35c0-3.48,2.82-6.3,6.3-6.3Z"/><path class="f" d="M26.97,57.7h2.06v30.96h-2.06c-3.48,0-6.3-2.82-6.3-6.3v-18.35c0-3.48,2.82-6.3,6.3-6.3Z" transform="translate(-48.33 98.03) rotate(-90)"/></g><polygon class="e" points="70.01 46.14 71.05 48.26 73.38 48.6 71.7 50.24 72.09 52.57 70.01 51.47 67.92 52.57 68.32 50.24 66.63 48.6 68.96 48.26 70.01 46.14"/><path class="d" d="M50.28,37.38s2.18,3.75-2,6.26c0,0-4.18,1.67-5.86-1.67"/></g></g></g><g id="b"/><g id="c"/></svg>