<?xml version="1.0" encoding="UTF-8"?><svg xmlns="http://www.w3.org/2000/svg" viewBox="0 0 167.98 147.62"><defs><style>.c,.d{fill:#fff;}.d{font-family:ZenKakuGothicNew-Bold, Zen Kaku Gothic New;font-size:19px;letter-spacing:.1em;}.e{fill:#d70a26;opacity:.85;}.f{fill:#fbfbfb;}</style></defs><g id="a"><g><path class="e" d="M75.58,8.1S17.09,27.25,11.4,74.34c0,0-16.56,54.34,64.17,70.38,0,0,60.03,15.53,79.7-25.36,14.67-30.5,23.34-77.22-12.64-97.85C125.05,11.44,95.5,1.58,75.58,8.1Z"/><path class="e" d="M65.58,2.1S7.09,21.25,1.4,68.34c0,0-16.56,54.34,64.17,70.38,0,0,60.03,15.53,79.7-25.36,14.67-30.5,23.34-77.22-12.64-97.85C115.05,5.44,85.5-4.42,65.58,2.1Z"/><text class="d" transform="translate(65.57 111.48)"><tspan x="0" y="0">雑貨</tspan></text><g><path class="c" d="M102.99,41.75c.36-.15,.7-.4,1.12-.15,.35,.21,.47,.52,.46,.91,0,1.1,.01,2.2,0,3.3,0,.35,.06,.48,.45,.48,1.13,.01,1.8,.74,1.84,1.87,.03,.87-.04,1.68-.89,2.18-.14,.08-.13,.21-.13,.34,0,.28,.02,.57,0,.85-.06,.79-.09,1.54,.89,1.83,.16,.05,.33,.22,.41,.38,.29,.59,.78,.65,1.36,.61,.66-.04,1.33-.04,1.99,0,1.8,.08,3.07,1.39,3.09,3.2,.02,2.26,.02,4.52,0,6.78,0,.39,.12,.57,.47,.7,1.13,.43,1.61,1.28,1.6,2.48-.02,2.98,0,5.96,0,8.94,0,1.64-.86,2.51-2.48,2.51-17.45,0-34.9,0-52.34,0-1.71,0-2.74-.72-3.38-2.34-.03-.07-.04-.14-.13-.16v-22.1c.34-.67,.43-1.42,.8-2.08,.65-1.13,1.5-2.05,2.66-2.66,.31-.16,.42-.34,.42-.69-.01-4.52-.01-9.04,0-13.56,0-.28-.07-.49-.23-.73-.84-1.29-.26-3.06,1.13-3.45,.21-.06,.45-.08,.67-.08,1.41,0,2.81,0,4.22,0,.93,0,1.66,.35,2,1.21,.35,.89,.32,1.8-.36,2.56-.2,.22-.27,.42-.26,.7,.01,1.19,0,2.38,0,3.67,1.75-2.48,4.02-3.43,6.95-2.81,0-.48,0-.95,0-1.42,.04-2.11,1.6-3.69,3.61-3.68,1.99,.01,3.52,1.59,3.56,3.67,0,.32,0,.64,0,1.02,.5-.27,.85-.49,.82-1.15-.03-.88,.32-1.67,.98-2.28,.18-.17,.25-.34,.26-.59,.09-1.68,1.25-2.79,2.95-2.83,.27,0,.41-.11,.56-.29,1.43-1.69,3.95-1.37,4.88,.63,.23,.49,.73,.57,1.08,.85,.11,.09,.33-.19,.5-.3,.28-.19,.68-.34,.79-.6,.09-.22-.19-.58-.26-.89-.21-.84-.28-1.69-.08-2.54,.22-.96,.46-1.92,.73-2.86,.26-.91,.96-1.31,1.88-1.09,.74,.18,1.46,.4,2.2,.56,.51,.12,.78,.41,.87,.92,.07,.43,.2,.84,.33,1.37,.37-.4,.69-.74,.99-1.09,.27-.32,.61-.46,1.01-.36,.84,.21,1.69,.42,2.52,.68,.67,.21,1.1,.82,.97,1.49-.26,1.34-.54,2.68-1.11,3.92-.33,.72-.82,1.32-1.45,1.8-.23,.18-.29,.3-.12,.59,1.01,1.72,1.17,3.53,.55,5.42-.46,1.42-.91,2.85-1.37,4.27,0,.04-.04,.12-.02,.13,.06,.04,.08-.01,.09-.06Zm-13.12,2.2c-.64,.43-1.21,.79-1.76,1.18-.43,.3-.83,.3-1.26,0-.75-.52-1.52-1-2.26-1.52-.26-.18-.44-.19-.7,0-.71,.5-1.46,.95-2.17,1.46-.5,.36-.94,.38-1.45,.01-.68-.49-1.4-.91-2.07-1.4-.35-.26-.6-.23-.94,.01-.67,.49-1.39,.92-2.07,1.4-.49,.35-.92,.34-1.4,0-.73-.52-1.48-.98-2.22-1.49-.24-.17-.41-.16-.65,0-.75,.52-1.5,1.03-2.27,1.51-.24,.15-.32,.32-.32,.59,.02,1.04,.03,2.09,0,3.13-.01,.44,.12,.66,.51,.88,1.67,.94,2.81,2.35,3.16,4.24,.5,2.78,.14,5.6,.21,8.41,0,.04-.01,.08-.03,.11-.14,.37-.38,.6-.8,.61-.44,0-.72-.23-.83-.64-.05-.18-.04-.38-.04-.57,0-2.11,.03-4.22,0-6.32-.04-2.15-1.03-3.73-3.02-4.61-.63-.28-.86-.67-.86-1.35,.02-4.5,0-9,.02-13.5,0-.38-.06-.52-.48-.51-.91,.04-1.82,.03-2.73,0-.43-.02-.57,.08-.56,.54,.02,4.52,0,9.04,.02,13.56,0,.61-.22,.97-.79,1.22-2.07,.92-3.09,2.55-3.09,4.8,0,6.59,0,13.18,0,19.76,0,1.21,.6,1.82,1.81,1.82,2.62,0,5.24,0,7.86,0,1.24,0,1.84-.6,1.84-1.84,0-3.11,0-6.23,0-9.34,0-.21-.01-.42,.03-.62,.1-.42,.41-.66,.82-.66,.41,0,.72,.24,.82,.66,.04,.18,.03,.38,.03,.57,0,2.49,.02,4.97,0,7.46-.01,1.26,.19,2.54-.36,3.78h.58c5.62,0,11.24,0,16.86,.02,.54,0,.6-.17,.6-.63-.01-10.69,0-21.38,0-32.07v-.64Zm12.99,0c-.62,.41-1.16,.74-1.66,1.11-.5,.37-.94,.38-1.45,.01-.69-.5-1.43-.93-2.12-1.43-.32-.23-.53-.21-.84,.01-.69,.5-1.43,.94-2.12,1.43-.49,.35-.92,.35-1.4,0-.53-.38-1.08-.72-1.64-1.09-.03,.09-.04,.1-.04,.12,0,10.93,0,21.86-.02,32.79,0,.37,.16,.38,.44,.38,1.94,0,3.87-.02,5.81,0,.41,0,.49-.12,.49-.51-.02-2.87,0-5.73,0-8.6,0-4.12,0-8.24,0-12.35,0-1.28,.57-2.21,1.71-2.79,.08-.04,.19-.06,.26-.12,.15-.13,.15-2.43-.02-2.53-.89-.54-.95-1.39-.92-2.29,.04-1.05,.75-1.78,1.8-1.81,.47-.01,.95-.02,1.42,0,.26,0,.32-.08,.32-.33-.01-.64,0-1.28,0-2.01Zm-2.85,22.38c0,3.47,0,6.95-.01,10.42,0,.42,.1,.53,.53,.53,4.18-.02,8.35-.01,12.53-.01,.76,0,.85-.09,.85-.84,0-2.94-.01-5.88,.01-8.83,0-.53-.16-.82-.66-1.04-2.07-.89-4.11-1.84-6.18-2.73-.67-.29-.95-.67-.94-1.42,.04-2.13,.02-4.25,.01-6.38,0-1.03-.25-1.35-1.25-1.56-.52-.11-.79-.42-.8-.95,0-.44,.01-.87,0-1.31-.02-.52,.23-1.24-.1-1.52-.32-.26-1.01-.05-1.54-.1-.39-.03-.42,.14-.42,.46,.02,.82,0,1.63,0,2.45,0,.53-.26,.85-.78,.96-1.04,.23-1.27,.53-1.27,1.61,0,3.42,0,6.83,0,10.25Zm-1.71-35.76c-2.45-.04-4.59,1.92-4.8,4.35-.02,.27,.09,.32,.29,.37,.59,.15,1.18,.29,1.76,.45,.63,.18,.92,.62,.78,1.11-.14,.48-.59,.69-1.2,.54-.53-.13-1.07-.27-1.59-.42-.34-.1-.45-.02-.51,.34-.22,1.25-.48,2.49-.74,3.73-.24,1.15-.24,1.15,.77,1.82,.19,.13,.39,.23,.56,.38,.25,.22,.44,.17,.7,0,.73-.51,1.49-.98,2.22-1.49,.47-.33,.89-.32,1.35,0,.74,.52,1.51,1.01,2.26,1.52,.23,.16,.37,.23,.46-.14,.11-.44,.27-.87,.42-1.29,.08-.23,.05-.32-.21-.38-.55-.12-1.1-.28-1.65-.43-.74-.19-1.04-.57-.9-1.13,.14-.54,.59-.72,1.35-.52,.55,.14,1.11,.25,1.65,.43,.32,.11,.43,.01,.51-.27,.28-.92,.6-1.83,.88-2.76,.94-3.16-1.18-6.18-4.37-6.22Zm-10.85,.33c-.59,0-1.25,.44-1.16,.98,.18,1.02-.32,1.56-.99,2.19-.6,.56-.42,1.37,.22,1.87,.46,.36,.93,.72,1.37,1.11,1.32,1.19,2.52,2.47,3.14,4.19,.05,.13-.05,.4,.22,.37,.23-.02,.26-.24,.3-.43,.34-1.75,.68-3.5,1.03-5.24,.26-1.29,.37-2.64,1.08-3.8,.26-.42,.09-.59-.27-.68-.59-.14-.88-.5-1.01-1.08-.12-.52-.51-.78-1.03-.83-.51-.04-.88,.2-1.12,.63-.54,.95-.53,.96-1.58,.76-.07-.01-.15-.02-.19-.03Zm1.05,11.6c-.04-.67-.24-1.19-.55-1.68-.93-1.49-2.26-2.59-3.62-3.66-.13-.1-.24-.16-.4-.04-1.48,1.14-2.9,2.34-3.83,3.98-.65,1.14-.52,1.47,.57,2.17,.23,.14,.38,.16,.6,0,.68-.48,1.38-.93,2.07-1.39,.82-.55,.93-.55,1.72-.02,.66,.44,1.32,.89,1.98,1.32,.19,.12,.37,.38,.64,.13,.29-.28,.86-.31,.81-.82Zm-19.24,.11c.51-.33,.96-.61,1.39-.91,.39-.27,.76-.27,1.15,0,.5,.34,1.01,.67,1.51,1.01,1.16,.77,1.15,.75,2.35,0,.72-.46,1.34-1.1,2.23-1.25-.6-2.34-2.59-3.74-4.85-3.44-2.25,.3-3.86,2.22-3.79,4.61Zm27.26-15.47c0,.54,.11,1.05,.33,1.54,.09,.2,.17,.3,.42,.26,1.8-.28,3.42,.16,4.86,1.25,.21,.16,.36,.14,.53-.03,.15-.14,.32-.27,.46-.42,.75-.74,.97-1.73,1.21-2.7,.1-.42,.4-.93,.26-1.24-.17-.35-.81-.27-1.22-.43-.31-.12-.52-.05-.74,.21-.46,.55-.96,1.07-1.44,1.61-.25,.29-.55,.48-.95,.38-.42-.1-.6-.42-.69-.82-.09-.41-.17-.81-.27-1.22q-.31-1.35-1.68-1.66c-.06-.01-.11-.02-.17-.04-.14-.04-.23,.02-.26,.15-.23,1.05-.64,2.06-.67,3.15Zm-15.78,9.11c0-.56,.01-.94,0-1.32-.04-1.08-.84-1.88-1.89-1.87-1.04,0-1.84,.8-1.87,1.89-.02,.63,.02,1.25-.01,1.88-.01,.32,.1,.52,.36,.7,.43,.29,.77,.67,1.09,1.08,.22,.28,.46,.82,.63,.8,.33-.05,.46-.55,.74-.8,.78-.68,1.23-1.46,.96-2.35Zm31.1,27.77c0-2.24,.01-4.4,0-6.56,0-.78-.63-1.38-1.43-1.4-.72-.02-1.44,.02-2.16,0-.34-.01-.38,.12-.4,.42-.05,.51,.13,.68,.62,.61,.2-.03,.42,0,.62,0,1.05,.02,1.61,.58,1.61,1.62,0,1.48,.01,2.96,0,4.44,0,.31,.08,.49,.38,.58,.23,.07,.45,.18,.76,.31Zm-47-31.2c-.66,0-1.32,.01-1.99,0-.36,0-.58,.07-.57,.49,0,.39,.16,.54,.54,.54,1.36,0,2.72,0,4.08,0,.35,0,.51-.14,.52-.5,0-.39-.15-.54-.54-.53-.68,.02-1.36,0-2.04,0Zm44.16,29.87c0-1.19-.02-2.37,.01-3.54,.01-.5-.3-.38-.55-.36-.25,.02-.64-.2-.61,.36,.04,.72,0,1.44,0,2.16q0,1.02,.96,1.38s.07,0,.18,0Zm-5.9-14.72c-.55,0-1.1,.02-1.65,0-.36-.02-.46,.1-.44,.45,.02,.29,0,.49,.41,.48,1.1-.03,2.2-.03,3.3,0,.41,.01,.39-.19,.41-.48,.02-.35-.08-.47-.44-.45-.53,.03-1.06,0-1.59,0Z"/><path class="f" d="M102.99,41.75s-.03,.1-.09,.06c-.02-.01,.01-.08,.02-.13,.02,.02,.05,.04,.07,.07Z"/><path class="c" d="M60.14,64.63c0-2.88,0-5.77,0-8.65,0-1.8,1.01-2.82,2.82-2.83,1.2,0,2.39,0,3.59,0,1.81,0,2.83,1.02,2.83,2.82,0,5.79,0,11.57,0,17.36,0,1.77-1.02,2.79-2.79,2.79-1.21,0-2.43,0-3.64,0-1.77,0-2.8-1.02-2.8-2.78,0-2.9,0-5.81,0-8.71Zm7.52,.05c0-2.9,0-5.81,0-8.71,0-.83-.26-1.1-1.08-1.11-1.22,0-2.43,0-3.65,0-.82,0-1.08,.28-1.08,1.1,0,5.77,0,11.54,0,17.32,0,.87,.25,1.13,1.11,1.13,1.2,0,2.39,0,3.59,0,.86,0,1.11-.26,1.11-1.13,0-2.87,0-5.73,0-8.6Z"/><path class="c" d="M101.15,69.95c0-1.67,0-3.34,0-5.01,0-.81,.29-1.1,1.09-1.11,.02,0,.04,0,.06,0,1.35-.13,2.59,.18,3.82,.78,1.92,.95,3.89,1.78,5.85,2.62,.59,.25,.83,.62,.82,1.26-.03,2.16,0,4.33-.01,6.49,0,.84-.29,1.14-1.12,1.14-3.13,0-6.26,0-9.4,0-.8,0-1.1-.31-1.1-1.11,0-1.69,0-3.38,0-5.07Zm1.71,0c0,1.35,.01,2.69,0,4.04,0,.35,.08,.44,.44,.44,2.45-.02,4.9-.02,7.34,0,.36,0,.44-.1,.44-.44-.02-1.61-.02-3.23,0-4.84,0-.34-.1-.5-.41-.63-2.06-.9-4.12-1.82-6.17-2.75-.39-.18-.78-.24-1.2-.25-.35,0-.45,.08-.44,.44,.02,1.33,0,2.66,0,3.98Z"/><path class="c" d="M101.05,35.73c.01,.55-.46,.96-1.02,.85-.55-.11-1.1-.26-1.64-.43-.49-.16-.7-.57-.59-1.01,.12-.45,.5-.72,.99-.62,.55,.11,1.1,.25,1.64,.42,.37,.11,.6,.38,.61,.8Z"/></g></g></g><g id="b"/></svg>