<?xml version="1.0" encoding="UTF-8"?><svg xmlns="http://www.w3.org/2000/svg" viewBox="0 0 165.98 147.62"><defs><style>.c,.d{fill:#fff;}.d{font-family:ZenKakuGothicNew-Bold, Zen Kaku Gothic New;font-size:19px;letter-spacing:.1em;}.e{fill:#d70a26;opacity:.85;}</style></defs><g id="a"><g><path class="e" d="M73.58,8.1S15.09,27.25,9.4,74.34c0,0-16.56,54.34,64.17,70.38,0,0,60.03,15.53,79.7-25.36,14.67-30.5,23.34-77.22-12.64-97.85C123.05,11.44,93.5,1.58,73.58,8.1Z"/><path class="e" d="M65.58,2.1S7.09,21.25,1.4,68.34c0,0-16.56,54.34,64.17,70.38,0,0,60.03,15.53,79.7-25.36,14.67-30.5,23.34-77.22-12.64-97.85C115.05,5.44,85.5-4.42,65.58,2.1Z"/><text class="d" transform="translate(53.8 111.48)"><tspan x="0" y="0">グルメ</tspan></text><g><path class="c" d="M110.77,71.21c-.26,.63-.3,1.33-.56,1.97-1.44,3.48-4.04,5.4-7.78,5.78-.25,.02-.5,.02-.76,.02-10.1,0-20.19,0-30.29,0-4.02,0-7.3-2.32-8.61-6.08-.29-.84-.43-1.71-.46-2.6-.02-.68,.27-1,.95-1.01,1.2-.01,2.4-.01,3.6,0,.3,0,.4-.09,.46-.38,.95-4.61,4.48-7.96,9.11-8.43,1.18-.12,2.07-.51,3.01-1.15,4.65-3.21,11.26-2.81,15.55,.88,.2,.18,.41,.19,.65,.2,3.32,.1,6.01,1.48,8.09,4.05,1.04,1.3,1.72,2.78,2.03,4.42,.06,.34,.2,.42,.52,.42,1.14-.02,2.27,0,3.41-.01,.5,0,.87,.14,1.09,.61v1.33Zm-24.24-.31c-7.32,0-14.64,0-21.95,0-.11,0-.22,.01-.33,0-.23-.02-.28,.09-.23,.28,.09,.38,.15,.77,.28,1.15,1.04,3.1,3.75,5.03,7.07,5.03,6.47,0,12.93,0,19.4,0,3.67,0,7.35,0,11.02,0,3.59-.01,6.51-2.4,7.23-5.87q.12-.58-.49-.58c-7.33,0-14.67,0-22,0Zm9.17-7.27c-2.94-5.38-11.26-6.17-15.33-2.91,.49,.18,1,.33,1.48,.56,.28,.13,.49,.1,.75-.02,1.1-.51,2.26-.78,3.46-.83,3.01-.12,5.54,.94,7.62,3.11,.12,.12,.2,.26,.43,.22,.52-.1,1.05-.13,1.6-.12Zm-15.29-1.16s-.04-.03-.06-.04c-3.57-1.12-7.32,.01-9.68,2.93-.85,1.06-1.41,2.26-1.72,3.58-.06,.27,0,.39,.29,.35,.09-.01,.19,0,.28,0q.97,0,1.31-.89c1.25-3.31,4.51-5.22,8-4.68,.18,.03,.36,.09,.52-.1,.34-.39,.7-.76,1.06-1.15Zm-8.15,6.82c.38,0,.73-.03,1.07,0,.45,.05,.69-.11,.92-.5,1.43-2.39,4.91-2.62,6.54-.36,.55,.76,1.08,.91,1.88,.87,.4-.02,.39-.13,.26-.43-.81-1.95-2.23-3.13-4.31-3.55-2.71-.54-5.61,1.23-6.36,3.96Zm19.91-4.94c-3.07-3.14-8.32-3.04-11.25,0,.39,.26,.8,.5,1.17,.78,.19,.14,.27,.04,.39-.06,2.37-1.92,5.8-1.91,8.15,.02,.11,.09,.19,.17,.35,.05,.38-.28,.78-.52,1.19-.79Zm.46,3.57c.14-.1,.26-.18,.39-.28,1.78-1.29,4.3-.99,5.54,.82,.51,.74,1.03,.92,1.8,.83,.03,0,.06,0,.09,0,.28,.03,.36-.04,.24-.34-.31-.81-.79-1.5-1.38-2.12-1.79-1.86-5.19-2.11-7.21-.53-.15,.12-.21,.2-.09,.38,.26,.38,.43,.8,.62,1.24Zm4.07-5.82c.33,.55,.64,.99,.83,1.49,.12,.32,.33,.49,.64,.62,1.86,.77,3.16,2.12,3.96,3.96,.16,.37,.11,.92,.45,1.08,.35,.16,.83,.03,1.26,.05,.3,.02,.34-.1,.28-.36-.22-.89-.54-1.74-1.02-2.52-1.46-2.37-3.57-3.78-6.4-4.31Zm-6.24,7.19c.09,0,.19,0,.28,0q.61,0,.44-.59c-.91-3.11-4.69-4.45-7.38-2.62-.34,.23-.42,.42-.13,.74,.16,.18,.29,.41,.39,.64,.13,.29,.23,.32,.49,.11,1.72-1.37,4.23-.66,5,1.41,.09,.24,.19,.33,.43,.31,.16-.02,.31,0,.47,0Zm6.68-.02c-.99-1.16-2.88-.93-3.44,0h3.44Zm-17.78-.01c-.92-1.03-2.66-1.02-3.38,0h3.38Zm8.53,0c-.65-1.13-2.28-.92-2.66,0h2.66Z"/><path class="c" d="M110.77,37.32c-.16,.07-.14,.23-.18,.36-.65,2.07-2.46,3.25-4.62,3.1-2.93-.2-5.85-.35-8.78-.52-4.06-.24-8.12-.48-12.18-.72-.33-.02-.68,.02-.99-.06-.92-.24-1.53,.14-2.11,.82-.93,1.11-2.16,1.57-3.61,1.52-.76-.03-1.51,0-2.27,0-.13,0-.3-.05-.36,.13-.35,.96-.96,1.81-1.08,2.86-.12,1.04,.04,2.02,.53,2.93,.75,1.4,1.1,2.87,.82,4.46-.13,.78-.42,1.51-.79,2.21-.71,1.36-.81,2.76-.24,4.19,.1,.25,.03,.33-.18,.41-.3,.13-.6,.27-.89,.43-.22,.12-.31,.08-.4-.16-.71-1.76-.68-3.5,.09-5.23,.31-.69,.69-1.34,.81-2.1,.18-1.06,.05-2.08-.45-3.03-.72-1.36-1.11-2.77-.9-4.31,.12-.87,.42-1.67,.82-2.45,.05-.09,.12-.19,.07-.34-.38,0-.77,0-1.16,0-.11,0-.23,0-.27,.13-.31,.89-.89,1.67-1.05,2.62-.18,1.08-.06,2.11,.45,3.07,.71,1.36,1.12,2.77,.9,4.32-.1,.72-.28,1.43-.64,2.06-1.04,1.83-1.06,3.65,0,5.47,.23,.39,.2,.55-.26,.72-1.01,.36-1.01,.39-1.46-.55-.92-1.93-.95-3.87,0-5.78,.65-1.28,1.01-2.57,.64-4-.14-.52-.38-1-.62-1.48-.96-1.97-.99-3.95,.02-5.9,.76-1.48,1.03-2.97,.4-4.54-.24-.61-.61-1.17-.81-1.81-.55-1.78-.38-3.48,.47-5.12,.12-.24,.32-.38,.53-.52h8.33c.37,.2,.79,.22,1.17,.42,.82,.42,1.41,1.1,2.04,1.73,.16,.16,.32,.26,.57,.26,2-.07,4.01-.12,6.01-.18,5.69-.17,11.38-.36,17.08-.5,1.82-.05,3.23,.74,4.09,2.38,.2,.38,.32,.8,.47,1.2v1.51Zm-39.29-1.98c.1,.51,.33,.88,.49,1.29,.11,.26,.26,.34,.54,.33,1.04-.02,2.08,0,3.12,0,1.26,0,1.25,0,1.23,1.26,0,.3-.1,.37-.38,.36-1.02-.02-2.05,0-3.07,0-.7,0-.7,0-.62,.68,.02,.19,.03,.38,.01,.57-.02,.27,.04,.38,.35,.38,1.83-.02,3.66-.01,5.49,0,.77,0,1.41-.27,1.94-.82,.36-.37,.75-.72,1.1-1.11,.33-.37,.71-.51,1.21-.47,2.53,.17,5.07,.31,7.6,.46,5.26,.31,10.51,.62,15.77,.92,1.07,.06,1.95-.36,2.51-1.3,.56-.94,.52-1.9-.06-2.81-.66-1.04-1.68-1.25-2.84-1.22-7.71,.24-15.41,.47-23.12,.7-.39,.01-.7-.11-.97-.39-.38-.4-.78-.78-1.17-1.17-.58-.6-1.28-.87-2.12-.87-1.91,.01-3.82,0-5.72,0-1.15,0-1.22,.08-1.39,1.22-.05,.36,.06,.4,.38,.4,1.31-.02,2.62,0,3.93,0,1.18,0,1.16,0,1.18,1.16,0,.38-.11,.46-.47,.46-1.62-.02-3.25,0-4.91,0Z"/><path class="c" d="M68.18,30.51c.61,.47,.67,.71,.32,1.44-.7,1.47-.73,2.96,.02,4.41,.66,1.29,1.05,2.62,.91,4.08-.08,.79-.28,1.55-.65,2.25-.51,.96-.86,1.95-.78,3.06,.06,.77,.28,1.48,.64,2.15,.64,1.19,.92,2.47,.8,3.82-.07,.79-.27,1.55-.64,2.25-.51,.96-.87,1.95-.79,3.06,.04,.62,.18,1.21,.44,1.77,.31,.66,.59,1.32,.82,2.01,.07,.22,.09,.33-.18,.39-.4,.09-.83,.39-1.16,.3-.36-.1-.33-.68-.49-1.05-.37-.85-.82-1.66-.96-2.6-.21-1.36-.07-2.68,.56-3.91,.53-1.06,.94-2.13,.81-3.34-.07-.67-.26-1.29-.58-1.88-.65-1.19-.96-2.46-.85-3.81,.07-.96,.36-1.85,.82-2.68,.19-.33,.15-.47-.27-.43-.38,.03-.76,0-1.13,0-.2,0-.3-.06-.27-.27,0-.02,0-.03,0-.05q-.05-1.31,1.27-1.31s.06,0,.09,0c.3-.04,.78,.16,.88-.09,.18-.42,.05-.93-.06-1.39-.05-.18-.2-.13-.31-.13-.5,0-1.01-.02-1.51,0-.3,.02-.38-.09-.36-.37,.02-.3,.03-.6,0-.9-.03-.31,.1-.37,.38-.36,.34,.02,.68,0,1.04,0-.15-.49-.31-.94-.42-1.39-.06-.24-.2-.22-.38-.23-.61-.01-.61-.01-.61-.63,0-.09,.01-.19,0-.28-.08-.5,.02-.83,.63-.7,.16,.03,.21-.05,.22-.21,.04-.45,.14-.9,.27-1.33-.03-.02-.05-.05-.08-.05-.34-.05-.8,.15-.98-.09-.17-.23-.05-.66-.06-1.01,0-.17,0-.35,0-.52h2.65Z"/></g></g></g><g id="b"/></svg>