<?xml version="1.0" encoding="UTF-8"?><svg xmlns="http://www.w3.org/2000/svg" viewBox="0 0 159.98 150.62"><defs><style>.c,.d{fill:#fff;}.e{fill:#d70a26;opacity:.85;}.d{font-family:ZenKakuGothicNew-Bold, Zen Kaku Gothic New;font-size:19px;letter-spacing:.07em;}</style></defs><g id="a"><g><path class="e" d="M92.4,139.52s58.48-19.15,64.17-66.24c0,0,16.56-54.34-64.17-70.38,0,0-60.03-15.53-79.7,25.36C-1.97,58.75-10.64,105.47,25.34,126.1c17.59,10.08,47.14,19.94,67.06,13.42Z"/><path class="e" d="M94.4,148.52s58.48-19.15,64.17-66.24c0,0,16.56-54.34-64.17-70.38,0,0-60.03-15.53-79.7,25.36C.03,67.75-8.64,114.47,27.34,135.1c17.59,10.08,47.14,19.94,67.06,13.42Z"/><text class="d" transform="translate(59.72 104.65)"><tspan x="0" y="0">美容</tspan><tspan x="-10.21" y="22.8">コスメ</tspan></text><g><path class="c" d="M68.85,70.66c-.13,.59-.52,.9-1.11,.9-1.06,0-2.12,.03-3.19-.03-2.36-.13-4.31-2.11-4.32-4.67,0-.22-.01-.44,0-.66,.02-.28-.02-.53-.26-.72-.08-.06-.15-.15-.17-.25-.4-1.46-1.32-2.86-.47-4.48,.4-.76,.14-1.63,.19-2.45,.01-.21-.17-.23-.3-.29-.84-.43-1.68-.86-2.52-1.29-1.47-.75-1.67-2.24-.4-3.31,2.31-1.95,3.37-4.5,3.4-7.44,.05-5.12,2.05-9.37,5.5-13.03,.15-.16,.31-.3,.4-.51,1.28-3.05,3.67-4.92,6.65-6.13,1.46-.59,2.99-.93,4.55-1.1,.09,0,.21,.04,.25-.1h3.45c.02,.08,.07,.09,.15,.1,3.17,.24,6.18,1.04,9.06,2.4,.28,.13,.47,.11,.7-.11,.89-.84,1.94-1.43,3.09-1.86,.65-.24,1.36-.29,2.01-.53h2.03c.73,.23,1.48,.32,2.21,.58,5.55,1.97,7.78,9,4.37,13.81-.65,.92-1.41,1.73-2.36,2.33-.37,.23-.42,.46-.32,.87,.87,3.72,.95,7.46,.07,11.19-1.18,4.98-3.8,9.03-7.92,12.09-.76,.56-1.55,1.09-2.38,1.53-.35,.19-.44,.35-.3,.77,.83,2.35,1.62,4.71,2.42,7.07,.1,.3,.21,.6,.09,.93-.15,.41-.44,.64-.85,.69-.4,.05-.73-.12-.94-.47-.11-.17-.18-.36-.27-.54,0-.05,0-.1-.01-.15-.81-2.39-1.64-4.78-2.44-7.17-.11-.32-.29-.35-.56-.36-1.39-.05-2.69-.43-3.9-1.11-2.69-1.5-4.36-3.86-5.53-6.63-.34-.82,.08-1.42,.99-1.49,.71-.06,1.36-.27,1.85-.81,1.59-1.75,1.26-4.56-.7-5.87-1.51-1.01-3.2-1.66-4.83-2.42-2.03-.96-4.02-1.99-5.78-3.4-2.61-2.1-4.35-4.75-5.18-8-.17-.65-.22-1.31-.33-1.98-.06,.03-.08,.03-.09,.04-.06,.08-.12,.16-.18,.24-1.91,2.77-2.91,5.82-2.92,9.2,0,2.21-.62,4.29-1.77,6.2-.61,1.02-1.4,1.89-2.31,2.7,.2,.1,.36,.19,.52,.27,.84,.43,1.71,.8,2.5,1.32,.42,.27,.83,.61,.84,1.14,.02,1.42,.22,2.88-.44,4.23-.14,.29-.14,.59,.09,.85,.26,.3,.33,.66,.31,1.04-.01,.23,.03,.42,.26,.55,.38,.2,.52,.56,.52,.97,0,.57-.02,1.15,0,1.72,.06,1.34,1.01,2.37,2.35,2.47,1.01,.07,2.02,.03,3.04,.05,.8,.02,1.12,.32,1.2,1.12Zm31.21-21.04c0-4.64-.75-8.03-2.26-11.26-1.91-4.06-4.9-7.06-8.97-8.95-2.75-1.28-5.64-2.02-8.66-2.23-3.19-.22-6.22,.27-9.01,1.9-1.61,.94-2.88,2.23-3.62,3.97-1.03,2.43-.63,4.78,.41,7.1,1.32,2.94,3.58,4.98,6.33,6.53,1.96,1.1,4.03,1.94,6.05,2.93,.88,.43,1.71,.94,2.49,1.55,1.87,1.48,2.22,3.44,1.8,5.64-.3,1.56-1.04,2.83-2.45,3.66-.27,.16-.76,.19-.79,.43-.03,.27,.26,.59,.43,.88,1.29,2.09,2.95,3.72,5.43,4.31,1.05,.25,2.06,.3,3.04-.37,.69-.48,1.43-.89,2.11-1.39,2.18-1.62,3.96-3.61,5.26-6,1.66-3.04,2.43-6.3,2.43-8.68Zm-8.11-20.81c2.09,1.32,3.87,2.92,5.36,4.85,1.49,1.94,2.52,4.12,3.36,6.41,3.35-2.37,3.99-7.03,1.44-10.26-2.45-3.1-7.16-3.58-10.16-1Z"/><path class="c" d="M75.44,75.95c-1.02-1.78-2.04-3.57-3.05-5.35-.09-.16-.25-.23-.38-.32-.93-.61-1.87-1.2-2.8-1.82-3.13-2.11-3.76-6.31-1.38-9.16,1.7-2.03,4.84-2.56,7.13-1.21,2.09,1.23,3.17,3.04,3.22,5.48,.02,1.03,.07,2.06,.08,3.09,0,.28,.08,.52,.22,.76,.93,1.6,1.86,3.21,2.79,4.81,.46,.81,.44,1.08-.15,1.75-.73,.27-1.16,.13-1.56-.56-.82-1.41-1.65-2.82-2.44-4.24-.2-.35-.35-.33-.63-.15-.54,.34-1.09,.66-1.66,.96-.26,.14-.27,.24-.12,.48,.92,1.56,1.82,3.14,2.73,4.71,.17,.29,.31,.59,.22,.95-.12,.43-.37,.73-.8,.82-.44,.1-.79-.09-1.05-.45-.12-.18-.24-.36-.36-.54Zm.78-10.94c-.03-.73-.04-1.34-.1-1.95-.24-2.52-2.84-4.3-5.15-3.53-2.54,.86-3.41,4.26-1.63,6.35,.63,.74,1.47,1.18,2.25,1.7,.49,.33,.97,.85,1.49,.9,.55,.05,1.05-.51,1.58-.81,.53-.3,1.25-.5,1.5-.96,.26-.48,.06-1.22,.06-1.71Z"/><path class="c" d="M81.77,75.05c.94-.18,1.32,.06,1.51,.92-.15,.67-.53,1.03-1.06,1.01-.51-.03-.89-.41-.97-.99-.06-.44,.17-.73,.52-.94Z"/><path class="c" d="M65.92,51.66c-.98-.03-1.86-.31-2.61-.94-.68-.56-.82-1.12-.39-1.63,.41-.5,.97-.49,1.64,.05,.63,.5,1.33,.61,2.09,.37,.24-.08,.45-.22,.65-.38,.67-.53,1.24-.53,1.64-.03,.41,.51,.26,1.08-.41,1.63-.76,.62-1.64,.91-2.61,.93Z"/><path class="c" d="M79.61,57.15c-.55,0-.98-.45-.98-1.01,0-.69,.59-1.36,1.18-1.35,.54,.01,.99,.48,.98,1.02-.01,.71-.57,1.35-1.18,1.34Z"/></g></g></g><g id="b"/></svg>