<?xml version="1.0" encoding="UTF-8"?><svg xmlns="http://www.w3.org/2000/svg" viewBox="0 0 159.98 150.62"><defs><style>.c,.d{fill:#fff;}.e{fill:#d70a26;opacity:.85;}.d{font-family:ZenKakuGothicNew-Bold, Zen Kaku Gothic New;font-size:19px;letter-spacing:.05em;}</style></defs><g id="a"><g><path class="e" d="M92.4,139.52s58.48-19.15,64.17-66.24c0,0,16.56-54.34-64.17-70.38,0,0-60.03-15.53-79.7,25.36C-1.97,58.75-10.64,105.47,25.34,126.1c17.59,10.08,47.14,19.94,67.06,13.42Z"/><path class="e" d="M94.4,148.52s58.48-19.15,64.17-66.24c0,0,16.56-54.34-64.17-70.38,0,0-60.03-15.53-79.7,25.36C.03,67.75-8.64,114.47,27.34,135.1c17.59,10.08,47.14,19.94,67.06,13.42Z"/><text class="d" transform="translate(15.22 109.48)"><tspan x="0" y="0">アクセサリー</tspan></text><g><path class="c" d="M48.69,52.44c-.57,0-1.04,0-1.51,0-.66-.02-1.03-.36-1.04-1.02-.01-1.2-.01-2.4,0-3.6,0-.67,.36-1.03,1.01-1.04,1.22-.01,2.44-.01,3.66,0,.21,0,.43,.07,.62,.15,1.4,.56,2.8,1.12,4.2,1.69,.77,.31,.93,.49,.87,1.32-.03,.54,.14,.68,.64,.62,.44-.05,1.05,.13,1.3-.1,.28-.25,0-.84-.05-1.29-.28-2.81-.58-5.63-.89-8.44-.13-1.15,.16-1.51,1.33-1.51,1.51,0,3.03-.02,4.54,0,.54,0,.71-.18,.7-.72-.06-2.28,0-4.55,.67-6.77,2.2-7.3,9.36-12.09,16.95-11.31,7.41,.77,13.3,6.43,14.32,13.78,.2,1.41,.14,2.83,.14,4.24,0,.75,.01,.77,.75,.77,1.53,0,3.07,0,4.6,0,1,0,1.33,.39,1.23,1.39-.51,4.79-1.01,9.57-1.53,14.36-.04,.34,.04,.56,.31,.74,.07,.04,.12,.1,.19,.14,.87,.49,1.09,1.22,1.08,2.21-.05,5.86-.02,11.72-.02,17.58,0,1.05-.28,1.34-1.32,1.34-16.67,0-33.35,0-50.02,0-3.09,0-5.16-2.15-4.95-5.23,.31-4.53,.69-9.05,1.03-13.58,.08-1.06,.18-2.12,.24-3.17,.06-.9,.36-1.72,.93-2.56Zm15.35,15.1c4.95,0,9.91,0,14.86,0,.42,0,.58-.06,.52-.53-.12-1.07-.17-2.15-.26-3.23-.23-2.94-.45-5.88-.7-8.82-.12-1.4-1.27-2.5-2.66-2.52-2.54-.03-5.07,0-7.61-.02-.29,0-.37,.08-.36,.36,.02,.79,.02,1.57,0,2.36-.01,.69-.36,1.05-1.06,1.06-1.81,0-3.62,0-5.43,0-.7,0-1.05-.36-1.06-1.05-.01-.77-.02-1.53,0-2.3,0-.33-.07-.43-.42-.43-2.48,.02-4.95,0-7.43,.01-1.49,.01-2.67,1.08-2.79,2.58-.33,4-.62,7.99-.95,11.99-.04,.46,.08,.54,.52,.54,4.93-.02,9.87-.01,14.8-.01Zm16.72,7.55c1.55,0,2.99-.02,4.42,.01,.48,.01,.62-.09,.61-.59-.02-5.68,0-11.36-.02-17.05,0-.52,.16-.89,.57-1.21,1.45-1.14,2.89-2.3,4.33-3.46,.31-.25,.63-.36,1.02-.36,1.69,.01,3.38,.02,5.07,0,.46,0,.84,.11,1.18,.41,.45,.39,.94,.75,1.46,1.17,.45-4.25,.89-8.4,1.34-12.56,.04-.33-.1-.34-.36-.34-.94,.01-1.89,.03-2.83,0-.41-.01-.47,.13-.47,.49,.02,1.95,0,3.89,0,5.84,0,.92-.32,1.23-1.25,1.23-1.69,0-3.38,0-5.07,0-.92,0-1.23-.31-1.23-1.24,0-1.95-.01-3.89,0-5.84,0-.4-.11-.48-.49-.48-5.98,.01-11.95,.01-17.93,0-.4,0-.48,.12-.47,.49,.02,1.97,.01,3.93,0,5.9,0,.84-.33,1.17-1.18,1.17-1.71,0-3.42,0-5.13,0-.92,0-1.23-.31-1.23-1.24,0-1.95-.01-3.89,0-5.84,0-.39-.1-.49-.48-.48-.9,.03-1.81,.03-2.71,0-.37-.01-.5,.07-.45,.47,.32,2.77,.63,5.54,.88,8.32,.05,.59,.26,.66,.77,.66,4.8-.02,9.59-.02,14.39,0,2.64,0,4.59,1.8,4.84,4.42,.1,1.08,.17,2.16,.25,3.23,.34,4.35,.67,8.7,1.02,13.05,.11,1.34,0,2.62-.89,3.83Zm-.66-35.86c2.55,0,5.11,0,7.66,0,.73,0,1.45,0,2.18,0,.33,0,.58-.07,.56-.48-.04-1.22,.07-2.43-.09-3.65-.64-4.89-4.43-8.54-9.41-9.05-4.67-.48-9.23,2.55-10.75,7.11-.57,1.7-.52,3.44-.51,5.19,0,.89,0,.89,.87,.89,3.16,0,6.33,0,9.49,0Zm7.58,27.08c0,2.77,0,5.54,0,8.31,0,.37,.08,.49,.47,.49,4.09-.02,8.17-.02,12.26,0,.43,0,.5-.13,.5-.53-.01-5.5-.01-11,0-16.5,0-.32-.08-.54-.34-.74-1.18-.91-2.34-1.85-3.5-2.79-.2-.16-.39-.22-.64-.22-1.41,0-2.83,.01-4.24,0-.3,0-.52,.1-.74,.28-1.12,.9-2.23,1.8-3.36,2.68-.32,.25-.41,.51-.41,.89,.01,2.71,0,5.42,0,8.13Zm-23.59,3.13h-10.67c-1.47,0-2.95,.01-4.42,0-.35,0-.48,.08-.49,.45-.02,.73-.1,1.45-.14,2.18-.09,1.73,1.13,3.04,2.86,3.04,8.57,0,17.14,0,25.71,0,1.73,0,2.95-1.31,2.87-3.04-.03-.69-.13-1.37-.13-2.06,0-.47-.15-.57-.61-.57-4.99,.02-9.99,.01-14.98,.01Zm30.21-31.63c.17-6.21-2.14-11-7.57-13.88-5.09-2.7-10.18-2.27-14.9,1.04-4.48,3.14-6.24,8.32-5.78,12.72q.85-.43,1.84,.03c-.22-3.57,.68-6.76,3.07-9.43,2.4-2.69,5.43-4.08,9.04-4.14,3.04-.05,5.76,.92,8.07,2.91,3.25,2.79,4.57,6.41,4.33,10.76,.66-.57,1.25-.58,1.91,0Zm-25.49,5.91c0-.41-.07-.84,.01-1.24,.28-1.41-.31-2.3-1.57-2.84-.04-.02-.07-.04-.1-.06-.16-.14-.3-.12-.47,0-.47,.33-.94,.65-1.42,.95-.2,.12-.23,.28-.23,.48,0,1.81,0,3.61,0,5.42,0,.29,.08,.36,.36,.36,1.02-.02,2.04-.02,3.06,0,.29,0,.36-.08,.36-.36-.02-.9,0-1.81,0-2.71Zm26.43,0c0-.84-.02-1.69,0-2.53,.01-.38-.09-.62-.43-.8-.52-.27-.96-.91-1.48-.86-.52,.04-.99,.58-1.48,.9-.03,.02-.06,.05-.1,.07-.26,.11-.3,.31-.3,.57,0,1.77,.01,3.54,0,5.3,0,.33,.07,.43,.42,.43,.98-.02,1.96-.02,2.95,0,.32,0,.44-.07,.43-.41-.02-.88,0-1.77,0-2.65Zm-43.89,6.83c.96,0,1.92,0,2.88,0,.14,0,.38,.14,.42-.15,.03-.23-.19-.22-.32-.28-.7-.29-1.41-.57-2.12-.85-.87-.35-1.72-.67-2.7-.62-1.54,.07-1.53,.02-1.47,1.56,.01,.29,.1,.35,.37,.35,.98-.01,1.96,0,2.94,0Zm12.73,3.78h.47c1.46,0,1.44,0,1.44-1.46,0-.39-.13-.45-.47-.44-.63,.03-1.26,0-1.89,0-1.46,0-1.44,0-1.44,1.46,0,.39,.13,.46,.47,.44,.47-.03,.94,0,1.41,0Z"/><path class="c" d="M80.12,48.66c-.88,0-1.77,0-2.65,0-.77,0-1.12-.35-1.12-1.11,0-1.16,0-2.32,0-3.47,0-.73,.36-1.07,1.09-1.08,1.79,0,3.57,0,5.36,0,.73,0,1.09,.35,1.09,1.08,0,1.18,.01,2.36,0,3.53,0,.69-.37,1.04-1.06,1.05-.9,.01-1.81,0-2.71,0Zm-.05-1.89h.47c1.55,0,1.54,0,1.47-1.54-.01-.23-.02-.36-.31-.35-1.06,.02-2.12,0-3.18,0-.18,0-.27,.03-.3,.25-.21,1.52-.11,1.64,1.37,1.64h.47Z"/><path class="c" d="M97.11,68.56c-.06,1.02-.52,1.87-1.48,2.38-.33,.18-.45,.37-.41,.72,.03,.21,.02,.43,0,.65-.05,.52-.44,.88-.93,.88-.49,0-.97-.37-.93-.87,.07-.8-.16-1.31-.89-1.72-.62-.34-.87-1.04-.99-1.74-.12-.7,.19-1.22,.76-1.32,.57-.1,.99,.27,1.1,1,.07,.46,.32,.76,.77,.85,.4,.08,.74-.08,.96-.42,.22-.35,.21-.71-.03-1.05-.18-.26-.44-.37-.75-.4-1.53-.14-2.48-.93-2.78-2.27-.28-1.24,.3-2.41,1.57-3.11,.22-.12,.27-.24,.26-.45,0-.27-.02-.55,0-.82,.04-.52,.43-.88,.92-.89,.49,0,.97,.36,.93,.86-.06,.8,.16,1.31,.89,1.73,.65,.37,.92,1.1,1.01,1.85,.08,.66-.26,1.15-.82,1.21-.54,.06-.94-.3-1.05-.95-.11-.71-.65-1.09-1.24-.88-.46,.17-.7,.52-.63,1.01,.07,.51,.4,.8,.92,.82,.8,.03,1.49,.31,2.05,.89,.53,.55,.78,1.21,.79,2.03Z"/><path class="c" d="M94.29,56.21c.51,0,.93,.43,.93,.94,0,.53-.45,.97-.98,.95-.51-.02-.91-.46-.9-.97,.01-.51,.44-.92,.95-.92Z"/></g></g></g><g id="b"/></svg>