<?xml version="1.0" encoding="UTF-8"?><svg xmlns="http://www.w3.org/2000/svg" viewBox="0 0 167.98 147.62"><defs><style>.c,.d{fill:#fff;}.e{fill:#d70a26;opacity:.85;}.d{font-family:ZenKakuGothicNew-Bold, Zen Kaku Gothic New;font-size:19px;letter-spacing:.07em;}</style></defs><g id="a"><g><path class="e" d="M75.58,8.1S17.09,27.25,11.4,74.34c0,0-16.56,54.34,64.17,70.38,0,0,60.03,15.53,79.7-25.36,14.67-30.5,23.34-77.22-12.64-97.85C125.05,11.44,95.5,1.58,75.58,8.1Z"/><path class="e" d="M65.58,2.1S7.09,21.25,1.4,68.34c0,0-16.56,54.34,64.17,70.38,0,0,60.03,15.53,79.7-25.36,14.67-30.5,23.34-77.22-12.64-97.85C115.05,5.44,85.5-4.42,65.58,2.1Z"/><text class="d" transform="translate(49.22 105.2)"><tspan x="0" y="0">ドリンク</tspan><tspan x="20.42" y="22.8">お茶</tspan></text><g><path class="c" d="M84.24,78.97c-.66-.27-1.37-.25-2.05-.39-2.41-.49-4.66-1.36-6.75-2.65-.61-.38-.79-.92-.48-1.45,.32-.54,.91-.66,1.54-.28,3.05,1.85,6.36,2.77,9.93,2.72,7.97-.1,15.03-5.38,17.39-13,.49-1.57,.76-3.18,.82-4.88-.42,.27-.8,.52-1.19,.75-1.08,.65-2.22,1.15-3.43,1.47-.35,.09-.44,.24-.43,.59,.02,1.56,.01,3.11,0,4.67,0,.91-.35,1.26-1.26,1.26-3.18,0-6.36,0-9.54,0-.93,0-1.3-.36-1.3-1.28,0-2.28,0-4.57,0-6.85,0-.3-.08-.49-.34-.66-.72-.48-1.33-1.09-1.96-1.69-4.74-4.47-11.97-4.7-16.99-.54-.38,.31-.55,.63-.55,1.14-.04,3.56,.79,6.89,2.6,9.97,.35,.6,.23,1.2-.28,1.51-.53,.32-1.11,.13-1.48-.51-1.5-2.54-2.39-5.28-2.74-8.2-.01-.1,.05-.25-.11-.3v-12.8c.3-.55,.75-.72,1.37-.72,8.33,.02,16.65,0,24.98,.02,.43,0,.58-.08,.56-.54-.03-.66,.41-1.09,1-1.09,.58,0,1.04,.45,1,1.1-.02,.48,.15,.53,.56,.53,3.38-.02,6.77,0,10.15,0,1.11,0,1.4,.3,1.4,1.42,0,.46,.01,.91,0,1.37-.01,.26,.08,.33,.34,.37,5.03,.69,9.02,4.26,10.27,9.19,1.73,6.79-2.84,13.82-9.72,14.99-1.2,.2-2.39,.19-3.59,.19-1.52,0-3.05,0-4.57,0-.23,0-.41,.05-.6,.19-3.18,2.46-6.75,3.92-10.77,4.28-.07,0-.13,.02-.15,.1h-3.66Zm-16.55-24.37c.16-.11,.25-.16,.33-.21,5.31-3.39,10.7-3.52,16.17-.41,1.18,.67,2.19,1.59,3.14,2.55,.32,.32,.53,.42,.9,0,.79-.88,1.68-1.67,2.49-2.53,.41-.43,.85-.71,1.47-.62,.3,.04,.36-.09,.36-.37-.01-1.18-.02-2.37,0-3.55,.01-.42-.06-.56-.54-.56-7.94,.02-15.87,.01-23.81,.01-.08,0-.17,0-.25,0-.23-.03-.28,.07-.28,.29,0,1.77,0,3.55,0,5.4Zm31.94-5.69c-1.54,0-3.08,0-4.62,0-.3,0-.44,.03-.43,.4,.03,1.23,.02,2.47,0,3.7,0,.33,.11,.41,.4,.37,.55-.07,.97,.15,1.34,.55,.66,.7,1.36,1.36,2.04,2.05,1.49,1.52,1.23,.91,1.24,2.93,0,.39,.13,.35,.4,.26,1.65-.56,3.13-1.43,4.44-2.58,.19-.17,.23-.34,.22-.57,0-2.23-.01-4.47,0-6.7,0-.33-.09-.42-.42-.41-1.54,.02-3.08,0-4.62,0Zm-6.11,16.85c1.22,0,2.44,0,3.66,0,.3,0,.41-.06,.41-.38-.01-2.34,0-4.67,0-7.01,0-.15,.02-.3-.11-.42-.82-.81-1.63-1.62-2.44-2.44-.1-.1-.2-.12-.32-.09-.18,.03-.1,.18-.11,.29-.02,.2,0,.41-.02,.61-.08,.55-.55,.93-1.06,.89-.53-.03-.92-.44-.95-1,0-.12,0-.24,0-.35-.02-.14,.09-.33-.08-.41-.2-.1-.34,.05-.48,.18-.75,.76-1.5,1.51-2.26,2.26-.16,.16-.21,.32-.2,.54,0,2.32,0,4.64,0,6.96,0,.31,.07,.4,.39,.4,1.2-.02,2.4,0,3.6,0Zm7.76,6.61c1.53,0,3,0,4.46,0,.68,0,1.35-.1,2-.27,5.12-1.26,8.36-5.91,7.78-11.15-.49-4.42-4.15-8.23-8.5-8.87-.25-.04-.37-.02-.35,.29,.03,.46,.03,.91,0,1.37-.02,.27,.08,.38,.34,.43,3.29,.6,6.07,3.47,6.52,7.06,.53,4.2-2.62,8.42-6.82,9.01-1.16,.16-2.33,.07-3.5,.1-.21,0-.37,.02-.52,.22-.44,.6-.92,1.17-1.43,1.81Zm2.9-4.06c.8-.02,1.54,.03,2.27-.09,2.74-.46,4.92-2.87,5.09-5.66,.17-2.88-1.68-5.52-4.41-6.3-.32-.09-.48-.1-.46,.32,.03,.67,.01,1.35,0,2.03-.02,2.82-.6,5.52-1.74,8.11-.23,.52-.49,1.02-.76,1.59Z"/><path class="c" d="M84.18,39.18c0,.66,0,1.32,0,1.98-.01,.78-.39,1.17-1.16,1.15-1.49-.03-2.98,.11-4.46-.09-3.22-.44-5.9-3.39-6-6.64-.04-1.28-.02-2.57-.01-3.86,0-.59,.34-1.03,.9-1.03,1.8,0,3.63-.24,5.4,.22,3.04,.79,5.15,3.41,5.31,6.54,.03,.57,0,1.15,0,1.73h.02Zm-2.04-.33c0-.44,.01-.76,0-1.07-.1-2.5-1.64-4.41-4.02-4.95-1.1-.25-2.22-.11-3.34-.13-.29,0-.21,.21-.21,.36,0,.78-.01,1.56,0,2.33,.08,2.81,2.63,5.34,6.08,4.82-.73-.72-1.44-1.42-2.14-2.12-.49-.5-.54-1.1-.13-1.53,.44-.46,1.03-.43,1.56,.09,.7,.69,1.38,1.39,2.19,2.19Z"/><path class="c" d="M88.17,35.46c-.02-1.35-.03-2.7,.5-3.99,1.12-2.71,3.67-4.47,6.59-4.49,1.12,0,2.23,0,3.35,0,.81,0,1.19,.37,1.18,1.18-.03,1.49,.15,2.98-.1,4.46-.58,3.48-3.4,5.91-6.95,6.01-1.13,.03-2.27,.02-3.4,0-.81,0-1.17-.38-1.18-1.19,0-.66,0-1.32,0-1.98Zm3.45,1.14c.43,0,.7,0,.97,0,2.64-.07,4.65-1.73,5.1-4.27,.18-1.02,.04-2.06,.08-3.09,.01-.29-.18-.23-.34-.23-.74,0-1.49-.03-2.23,0-1.96,.09-3.44,1-4.4,2.71-.58,1.03-.68,2.15-.5,3.32,.17-.11,.27-.27,.4-.4,.59-.6,1.19-1.2,1.8-1.79,.36-.35,.77-.4,1.21-.17,.4,.21,.58,.68,.48,1.13-.06,.26-.23,.44-.41,.62-.69,.69-1.38,1.38-2.16,2.16Z"/><path class="c" d="M72.25,71.13c.58-.01,1.03,.43,1.03,1,0,.55-.44,1-.99,1.01-.55,.01-1.04-.47-1.04-1.02,0-.54,.44-.99,.99-1Z"/></g></g></g><g id="b"/></svg>