<?xml version="1.0" encoding="UTF-8"?><svg xmlns="http://www.w3.org/2000/svg" viewBox="0 0 159.98 150.62"><defs><style>.c,.d{fill:#fff;}.e{fill:#d70a26;opacity:.85;}.d{font-family:ZenKakuGothicNew-Bold, Zen Kaku Gothic New;font-size:19px;letter-spacing:.07em;}</style></defs><g id="a"><g><path class="e" d="M92.4,139.52s58.48-19.15,64.17-66.24c0,0,16.56-54.34-64.17-70.38,0,0-60.03-15.53-79.7,25.36C-1.97,58.75-10.64,105.47,25.34,126.1c17.59,10.08,47.14,19.94,67.06,13.42Z"/><path class="e" d="M94.4,148.52s58.48-19.15,64.17-66.24c0,0,16.56-54.34-64.17-70.38,0,0-60.03-15.53-79.7,25.36C.03,67.75-8.64,114.47,27.34,135.1c17.59,10.08,47.14,19.94,67.06,13.42Z"/><text class="d" transform="translate(38.14 102.74)"><tspan x="0" y="0">スイーツ</tspan><tspan x="10.21" y="22.8">お菓子</tspan></text><g><path class="c" d="M112.71,44.68c-.22,.09-.2,.32-.24,.49-.42,1.46-1.25,2.63-2.51,3.47-.35,.23-.37,.39-.16,.75,1.59,2.74,1.09,5.77-1.31,7.89-.3,.26-.3,.42-.1,.74,1.68,2.78,1.26,5.71-1.12,7.98-.27,.25-.26,.38-.04,.66,1.67,2.18,1.94,4.54,.64,6.96-1.24,2.32-3.29,3.44-5.91,3.34-2.14-.08-3.81-1.12-4.99-2.91-.21-.32-.31-.4-.68-.16-2.79,1.82-6.2,1.27-8.3-1.32-.27-.33-.4-.29-.71-.07-2.65,1.82-6.18,1.35-8.23-1.14-.34-.41-.49-.34-.83-.05-2.1,1.76-5.16,1.94-7.42,.47-2.36-1.54-3.46-4.38-2.69-7.06,.12-.4,.06-.64-.33-.81-.44-.2-.8-.52-1.14-.86-.19-.2-.34-.27-.58-.03-2.32,2.33-6.15,2.43-8.7-.04-.04-.04-.11-.07-.17-.11-1.26,1.56-2.87,2.42-4.89,2.52-3.03,.15-6-2.29-6.43-5.28-.33-2.29,.31-4.21,2.01-5.77,.29-.26,.18-.4,0-.62-1.5-1.84-1.86-3.88-1.09-6.12,.24-.68,.58-1.32,1.08-1.84,.29-.31,.44-.54,.02-.88-.24-.2-.41-.51-.56-.79-.25-.47-.13-.91,.29-1.21,.42-.3,.87-.29,1.25,.09,.44,.45,.87,.91,1.27,1.41,.5,.63,.41,1.43-.21,2.07-.51,.52-1,1.04-1.25,1.73-.6,1.67-.31,3.17,.9,4.48,.04,.05,.09,.1,.13,.14,.96,1.04,.89,1.88-.21,2.75-1.81,1.43-2.28,3.73-1.17,5.66,1.57,2.72,5.35,2.98,7.26,.49,.09-.12,.17-.25,.27-.37,.71-.91,1.72-1,2.52-.15,.82,.86,1.73,1.5,2.96,1.6,1.24,.1,2.31-.26,3.23-1.09,.19-.18,.36-.38,.55-.56,.77-.77,1.7-.76,2.45,.06,.39,.42,.79,.81,1.28,1.1,.27,.16,.46,.15,.66-.11,.39-.53,1.24-.77,1.4-1.3,.14-.49-.52-1.07-.72-1.68-.76-2.28-.1-4.91,1.72-6.49,.4-.35,.51-.58,.19-1.08-1.55-2.44-1.06-5.74,1.1-7.67,.35-.31,.41-.48,.1-.9-1.53-2.01-1.81-4.23-.73-6.51,1.13-2.39,3.1-3.64,5.77-3.67,1.72-.02,3.19,.61,4.39,1.82,.32,.32,.51,.33,.83,.01,1.23-1.24,1.66-2.71,1.19-4.37-.48-1.69-1.63-2.75-3.37-3.09-1.8-.35-3.25,.29-4.36,1.72-.71,.91-1.23,1.17-2.02,.92-.35-.11-.61-.34-.83-.61-1.68-2.01-4.77-2.01-6.53,.05-.83,.98-1.7,.92-2.62-.01-1.73-1.78-3.79-2.05-5.7-.76-.35,.24-.61,.56-.91,.84-.86,.83-1.86,.78-2.56-.2-.73-1.02-1.65-1.72-2.89-1.96-1.95-.38-3.97,.64-4.8,2.45-.85,1.84-.34,3.99,1.24,5.25,.19,.15,.38,.29,.55,.46,.46,.47,.58,1.19,.27,1.75-.31,.56-.77,1.01-1.28,1.38-.39,.28-.84,.2-1.18-.16-.37-.39-.42-.89-.07-1.24,.51-.51,.33-.75-.1-1.2-1.71-1.78-2.24-3.92-1.49-6.27,.79-2.46,2.52-3.96,5.11-4.38,2.3-.37,4.2,.42,5.73,2.12,.25,.28,.36,.29,.64,.03,2.47-2.22,5.97-2.2,8.41,.05,.29,.26,.42,.28,.71,0,2.37-2.23,5.92-2.27,8.36-.1,.31,.28,.44,.32,.74-.03,2.12-2.45,5.82-2.89,8.39-1.01,2.71,1.98,3.5,5.52,1.86,8.36-.07,.13-.14,.26-.25,.46,.98-.21,1.89-.37,2.84-.21,1.62,.26,2.97,.99,3.96,2.3,.27,.36,.43,.31,.75,.09,2.62-1.81,6.21-1.31,8.24,1.15,.28,.34,.4,.38,.77,.08,2.03-1.63,4.27-1.94,6.67-.94,.65,.27,.91,.81,.69,1.35-.22,.54-.77,.73-1.43,.46-1.98-.8-3.7-.41-5.18,1.11-.88,.9-1.87,.78-2.64-.27-1.29-1.76-2.81-2.37-4.74-1.9-.58,.14-1.08,.44-1.55,.81-1.28,.99-1.98,.88-2.91-.43-1.31-1.84-3.4-2.39-5.41-1.41-.29,.14-.55,.35-.81,.54-1.2,.89-2.12,.7-2.8-.61-.6-1.14-1.5-1.91-2.73-2.27-1.84-.54-3.88,.26-4.9,1.88-1.05,1.68-.87,3.8,.47,5.26,.07,.08,.15,.16,.23,.24,.83,.91,.78,1.83-.21,2.57-1.18,.88-1.86,1.99-1.9,3.47-.03,.95,.26,1.79,.82,2.56,.95,1.33,.85,1.95-.45,2.95-1.84,1.41-2.23,3.85-.92,5.76,.05,.07,.1,.14,.15,.22,.79,1.16,.6,1.98-.62,2.68-2.88,1.65-3.1,5.45-.45,7.41,1.69,1.25,4.08,1.04,5.62-.48,.29-.29,.57-.61,.98-.74,.73-.23,1.37,.01,1.89,.8,.88,1.31,2.07,2.03,3.65,2.04,.94,0,1.79-.3,2.54-.88,.34-.27,.65-.58,1.1-.67,.92-.18,1.45,.34,1.92,1.03,1.09,1.58,2.79,2.2,4.62,1.73,.62-.16,1.14-.51,1.65-.9,1.13-.87,2.06-.65,2.72,.6,.93,1.76,2.75,2.76,4.5,2.45,2.11-.36,3.5-1.75,3.79-3.83,.19-1.33-.25-2.49-1.14-3.48-1.08-1.2-1.03-1.93,.21-2.93,1.95-1.55,2.27-3.92,.82-5.96-.84-1.18-.74-1.87,.42-2.76,2.01-1.55,2.37-3.89,.93-5.99-.85-1.23-.67-2.02,.63-2.77,1.28-.73,2.01-1.84,2.22-3.28,.08-.53,.18-.99,.76-1.17,.59-.19,.91,.21,1.25,.58v1.31Z"/><path class="c" d="M91.32,49.01c-.6,0-1.12-.52-1.11-1.12,0-.59,.56-1.12,1.14-1.1,.57,.02,1.07,.54,1.08,1.1,0,.6-.51,1.12-1.11,1.12Z"/><path class="c" d="M100.86,49.16c0,.6-.51,1.13-1.1,1.13-.6,0-1.11-.52-1.1-1.13,0-.59,.47-1.07,1.06-1.09,.61-.02,1.13,.47,1.13,1.08Z"/><path class="c" d="M90.3,56.04c-.59,.02-1.13-.5-1.14-1.1,0-.58,.46-1.08,1.04-1.11,.61-.03,1.14,.44,1.17,1.05,.03,.59-.49,1.14-1.08,1.16Z"/><path class="c" d="M67.41,38.24c-.02,.6-.57,1.1-1.16,1.08-.61-.03-1.08-.55-1.05-1.17,.03-.59,.52-1.06,1.11-1.05,.59,0,1.12,.56,1.1,1.14Z"/><path class="c" d="M67.41,45.33c-.02,.6-.55,1.09-1.16,1.07-.62-.02-1.08-.53-1.05-1.16,.03-.58,.54-1.06,1.11-1.05,.58,.01,1.12,.57,1.1,1.15Z"/><path class="c" d="M58.85,38.18c.02,.62-.47,1.13-1.08,1.14-.6,0-1.13-.51-1.13-1.11,0-.57,.49-1.08,1.06-1.11,.6-.03,1.13,.47,1.14,1.08Z"/><path class="c" d="M57.73,44.19c.59-.02,1.12,.5,1.12,1.11,0,.6-.45,1.08-1.04,1.1-.62,.03-1.13-.44-1.16-1.06-.02-.6,.48-1.14,1.08-1.15Z"/><path class="c" d="M81.85,52.55c.61,.02,1.09,.54,1.07,1.15-.02,.62-.53,1.09-1.15,1.06-.58-.03-1.06-.53-1.06-1.11,0-.59,.55-1.12,1.14-1.1Z"/><path class="c" d="M80.78,59.58c.63,0,1.1,.51,1.08,1.14-.02,.59-.53,1.07-1.11,1.07-.57,0-1.09-.52-1.1-1.09-.01-.61,.51-1.12,1.13-1.12Z"/><path class="c" d="M90.33,61.94c0,.6-.51,1.11-1.12,1.11-.59,0-1.08-.47-1.1-1.06-.02-.61,.48-1.13,1.08-1.14,.6-.01,1.13,.5,1.13,1.1Z"/><path class="c" d="M97.64,62.1c.59-.01,1.12,.51,1.12,1.11,0,.59-.47,1.08-1.05,1.1-.61,.03-1.13-.46-1.15-1.07-.02-.6,.49-1.13,1.08-1.14Z"/><path class="c" d="M66.31,53.5c-.62,0-1.11-.47-1.11-1.1,0-.6,.45-1.07,1.05-1.1,.61-.03,1.14,.46,1.16,1.06,.02,.59-.49,1.12-1.09,1.13Z"/><path class="c" d="M99.81,56.22c-.01,.6-.49,1.07-1.08,1.08-.62,0-1.12-.49-1.11-1.12,.01-.6,.49-1.07,1.08-1.08,.62,0,1.12,.5,1.11,1.12Z"/><path class="c" d="M83.97,46.65c0,.62-.51,1.12-1.13,1.1-.59-.02-1.06-.5-1.06-1.1,0-.62,.51-1.11,1.13-1.1,.6,.02,1.06,.5,1.06,1.1Z"/><path class="c" d="M57.73,53.49c-.6-.01-1.07-.49-1.08-1.08,0-.62,.5-1.12,1.12-1.11,.62,.01,1.1,.52,1.07,1.15-.02,.59-.51,1.05-1.11,1.04Z"/></g></g></g><g id="b"/></svg>